<svg width="998" height="214" viewBox="0 0 998 214" fill="none" xmlns="http://www.w3.org/2000/svg">
<rect x="106" y="190" width="495" height="24" fill="black"/>
<path d="M162.182 116C161.939 112.97 160.803 110.606 158.773 108.909C156.773 107.212 153.727 106.364 149.636 106.364C147.03 106.364 144.894 106.682 143.227 107.318C141.591 107.924 140.379 108.758 139.591 109.818C138.803 110.879 138.394 112.091 138.364 113.455C138.303 114.576 138.5 115.591 138.955 116.5C139.439 117.379 140.197 118.182 141.227 118.909C142.258 119.606 143.576 120.242 145.182 120.818C146.788 121.394 148.697 121.909 150.909 122.364L158.545 124C163.697 125.091 168.106 126.53 171.773 128.318C175.439 130.106 178.439 132.212 180.773 134.636C183.106 137.03 184.818 139.727 185.909 142.727C187.03 145.727 187.606 149 187.636 152.545C187.606 158.667 186.076 163.848 183.045 168.091C180.015 172.333 175.682 175.561 170.045 177.773C164.439 179.985 157.697 181.091 149.818 181.091C141.727 181.091 134.667 179.894 128.636 177.5C122.636 175.106 117.97 171.424 114.636 166.455C111.333 161.455 109.667 155.061 109.636 147.273H133.636C133.788 150.121 134.5 152.515 135.773 154.455C137.045 156.394 138.833 157.864 141.136 158.864C143.47 159.864 146.242 160.364 149.455 160.364C152.152 160.364 154.409 160.03 156.227 159.364C158.045 158.697 159.424 157.773 160.364 156.591C161.303 155.409 161.788 154.061 161.818 152.545C161.788 151.121 161.318 149.879 160.409 148.818C159.53 147.727 158.076 146.758 156.045 145.909C154.015 145.03 151.273 144.212 147.818 143.455L138.545 141.455C130.303 139.667 123.803 136.682 119.045 132.5C114.318 128.288 111.97 122.545 112 115.273C111.97 109.364 113.545 104.197 116.727 99.7727C119.939 95.3182 124.379 91.8485 130.045 89.3636C135.742 86.8788 142.273 85.6364 149.636 85.6364C157.152 85.6364 163.652 86.8939 169.136 89.4091C174.621 91.9242 178.848 95.4697 181.818 100.045C184.818 104.591 186.333 109.909 186.364 116H162.182ZM204.945 107.273V86.9091H285.854V107.273H257.854V180H232.945V107.273H204.945ZM360.696 86.9091H385.969V146.545C385.969 153.636 384.272 159.773 380.878 164.955C377.514 170.106 372.817 174.091 366.787 176.909C360.757 179.697 353.757 181.091 345.787 181.091C337.757 181.091 330.726 179.697 324.696 176.909C318.666 174.091 313.969 170.106 310.605 164.955C307.272 159.773 305.605 153.636 305.605 146.545V86.9091H330.878V144.364C330.878 147.242 331.514 149.818 332.787 152.091C334.06 154.333 335.817 156.091 338.06 157.364C340.332 158.636 342.908 159.273 345.787 159.273C348.696 159.273 351.272 158.636 353.514 157.364C355.757 156.091 357.514 154.333 358.787 152.091C360.06 149.818 360.696 147.242 360.696 144.364V86.9091ZM444.038 180H408.22V86.9091H443.675C453.25 86.9091 461.523 88.7727 468.493 92.5C475.493 96.197 480.887 101.53 484.675 108.5C488.493 115.439 490.402 123.758 490.402 133.455C490.402 143.152 488.508 151.485 484.72 158.455C480.932 165.394 475.568 170.727 468.629 174.455C461.69 178.152 453.493 180 444.038 180ZM433.493 158.545H443.129C447.735 158.545 451.659 157.803 454.902 156.318C458.175 154.833 460.659 152.273 462.356 148.636C464.084 145 464.947 139.939 464.947 133.455C464.947 126.97 464.068 121.909 462.311 118.273C460.584 114.636 458.038 112.076 454.675 110.591C451.341 109.106 447.25 108.364 442.402 108.364H433.493V158.545ZM512.335 180V86.9091H579.426V107.273H537.608V123.273H575.971V143.636H537.608V159.636H579.244V180H512.335ZM682.745 86.9091V180H661.655L628.018 131.091H627.473V180H602.2V86.9091H623.655L656.745 135.636H657.473V86.9091H682.745ZM702.395 107.273V86.9091H783.304V107.273H755.304V180H730.395V107.273H702.395ZM853.237 116C852.994 112.97 851.858 110.606 849.828 108.909C847.828 107.212 844.782 106.364 840.691 106.364C838.085 106.364 835.949 106.682 834.282 107.318C832.646 107.924 831.434 108.758 830.646 109.818C829.858 110.879 829.449 112.091 829.419 113.455C829.358 114.576 829.555 115.591 830.01 116.5C830.494 117.379 831.252 118.182 832.282 118.909C833.313 119.606 834.631 120.242 836.237 120.818C837.843 121.394 839.752 121.909 841.964 122.364L849.6 124C854.752 125.091 859.161 126.53 862.828 128.318C866.494 130.106 869.494 132.212 871.828 134.636C874.161 137.03 875.873 139.727 876.964 142.727C878.085 145.727 878.661 149 878.691 152.545C878.661 158.667 877.131 163.848 874.1 168.091C871.07 172.333 866.737 175.561 861.1 177.773C855.494 179.985 848.752 181.091 840.873 181.091C832.782 181.091 825.722 179.894 819.691 177.5C813.691 175.106 809.025 171.424 805.691 166.455C802.388 161.455 800.722 155.061 800.691 147.273H824.691C824.843 150.121 825.555 152.515 826.828 154.455C828.1 156.394 829.888 157.864 832.191 158.864C834.525 159.864 837.297 160.364 840.51 160.364C843.207 160.364 845.464 160.03 847.282 159.364C849.1 158.697 850.479 157.773 851.419 156.591C852.358 155.409 852.843 154.061 852.873 152.545C852.843 151.121 852.373 149.879 851.464 148.818C850.585 147.727 849.131 146.758 847.1 145.909C845.07 145.03 842.328 144.212 838.873 143.455L829.6 141.455C821.358 139.667 814.858 136.682 810.1 132.5C805.373 128.288 803.025 122.545 803.055 115.273C803.025 109.364 804.6 104.197 807.782 99.7727C810.994 95.3182 815.434 91.8485 821.1 89.3636C826.797 86.8788 833.328 85.6364 840.691 85.6364C848.207 85.6364 854.707 86.8939 860.191 89.4091C865.676 91.9242 869.903 95.4697 872.873 100.045C875.873 104.591 877.388 109.909 877.419 116H853.237Z" fill="black"/>
<path d="M121.127 93.1873L69.2187 108.072L84.1846 124.367C90.8236 131.596 100.845 134.683 110.401 132.442L114.072 131.582C133.574 127.01 150.304 114.551 160.271 97.1765C165.273 88.4588 164.381 77.56 158.029 69.7713L146.915 56.1441L121.127 93.1873Z" fill="#696969" stroke="#696969"/>
<path d="M18.959 117L74.5278 29.5115L173.959 0.99996L117.208 88.8274L18.959 117Z" fill="#696969" stroke="#696969"/>
<path d="M611.376 211V192.818H618.958C620.319 192.818 621.458 193.011 622.376 193.395C623.299 193.78 623.991 194.319 624.453 195.011C624.921 195.703 625.154 196.505 625.154 197.417C625.154 198.109 625.009 198.728 624.719 199.272C624.429 199.811 624.03 200.258 623.521 200.613C623.012 200.968 622.423 201.217 621.754 201.359V201.536C622.488 201.572 623.166 201.77 623.787 202.131C624.415 202.492 624.918 202.995 625.297 203.64C625.675 204.279 625.865 205.037 625.865 205.913C625.865 206.89 625.616 207.763 625.119 208.532C624.622 209.295 623.903 209.899 622.962 210.343C622.021 210.781 620.878 211 619.535 211H611.376ZM615.771 207.458H618.487C619.44 207.458 620.141 207.277 620.591 206.916C621.047 206.555 621.275 206.052 621.275 205.407C621.275 204.939 621.165 204.537 620.946 204.2C620.727 203.856 620.417 203.593 620.014 203.409C619.612 203.22 619.129 203.125 618.567 203.125H615.771V207.458ZM615.771 200.293H618.203C618.683 200.293 619.109 200.213 619.482 200.054C619.854 199.894 620.144 199.663 620.352 199.361C620.565 199.059 620.671 198.695 620.671 198.269C620.671 197.66 620.455 197.18 620.023 196.831C619.591 196.482 619.008 196.307 618.274 196.307H615.771V200.293ZM650.977 192.818H655.363V204.546C655.363 205.901 655.04 207.082 654.395 208.088C653.75 209.088 652.85 209.864 651.696 210.414C650.542 210.959 649.202 211.231 647.675 211.231C646.13 211.231 644.781 210.959 643.626 210.414C642.472 209.864 641.576 209.088 640.936 208.088C640.297 207.082 639.978 205.901 639.978 204.546V192.818H644.372V204.164C644.372 204.791 644.508 205.351 644.781 205.842C645.059 206.333 645.446 206.718 645.944 206.996C646.441 207.274 647.018 207.413 647.675 207.413C648.332 207.413 648.906 207.274 649.397 206.996C649.894 206.718 650.282 206.333 650.56 205.842C650.838 205.351 650.977 204.791 650.977 204.164V192.818ZM674.512 192.818V211H670.117V192.818H674.512ZM689.271 211V192.818H693.665V207.431H701.229V211H689.271ZM722.225 211H715.504V192.818H722.216C724.068 192.818 725.663 193.182 727.001 193.91C728.344 194.632 729.38 195.674 730.108 197.035C730.836 198.391 731.2 200.012 731.2 201.9C731.2 203.794 730.836 205.422 730.108 206.783C729.386 208.144 728.353 209.189 727.01 209.917C725.666 210.639 724.071 211 722.225 211ZM719.899 207.254H722.056C723.074 207.254 723.935 207.082 724.639 206.739C725.35 206.389 725.885 205.824 726.246 205.043C726.613 204.256 726.797 203.208 726.797 201.9C726.797 200.592 726.613 199.551 726.246 198.775C725.879 197.994 725.338 197.432 724.622 197.088C723.911 196.739 723.035 196.565 721.994 196.565H719.899V207.254ZM755.593 198.269C755.534 197.618 755.271 197.112 754.803 196.751C754.342 196.384 753.682 196.201 752.824 196.201C752.255 196.201 751.782 196.275 751.403 196.423C751.024 196.571 750.74 196.775 750.551 197.035C750.361 197.29 750.264 197.583 750.258 197.914C750.246 198.186 750.299 198.426 750.418 198.633C750.542 198.84 750.72 199.024 750.95 199.184C751.187 199.337 751.471 199.474 751.803 199.592C752.134 199.71 752.507 199.814 752.921 199.903L754.484 200.258C755.383 200.453 756.176 200.714 756.863 201.039C757.555 201.365 758.136 201.752 758.603 202.202C759.077 202.652 759.435 203.17 759.677 203.756C759.92 204.342 760.044 204.999 760.05 205.727C760.044 206.875 759.754 207.86 759.18 208.683C758.606 209.506 757.78 210.136 756.703 210.574C755.632 211.012 754.339 211.231 752.824 211.231C751.303 211.231 749.977 211.003 748.846 210.547C747.716 210.092 746.837 209.399 746.21 208.47C745.582 207.541 745.26 206.366 745.242 204.945H749.45C749.486 205.531 749.642 206.02 749.921 206.41C750.199 206.801 750.58 207.097 751.066 207.298C751.557 207.499 752.125 207.6 752.77 207.6C753.362 207.6 753.865 207.52 754.28 207.36C754.7 207.2 755.022 206.978 755.247 206.694C755.472 206.41 755.588 206.085 755.593 205.718C755.588 205.374 755.481 205.081 755.274 204.839C755.067 204.59 754.747 204.377 754.315 204.2C753.889 204.016 753.344 203.847 752.682 203.694L750.782 203.25C749.207 202.889 747.967 202.306 747.062 201.501C746.156 200.69 745.707 199.595 745.712 198.216C745.707 197.091 746.008 196.106 746.618 195.26C747.228 194.413 748.071 193.753 749.148 193.28C750.225 192.806 751.453 192.57 752.832 192.57C754.241 192.57 755.463 192.809 756.499 193.289C757.541 193.762 758.349 194.428 758.923 195.286C759.497 196.144 759.79 197.139 759.802 198.269H755.593ZM791.641 211V192.818H804.052V196.387H796.035V200.116H803.262V203.694H796.035V211H791.641ZM829.264 192.818H833.65V204.546C833.65 205.901 833.327 207.082 832.682 208.088C832.037 209.088 831.138 209.864 829.983 210.414C828.829 210.959 827.489 211.231 825.962 211.231C824.417 211.231 823.068 210.959 821.914 210.414C820.759 209.864 819.863 209.088 819.224 208.088C818.584 207.082 818.265 205.901 818.265 204.546V192.818H822.659V204.164C822.659 204.791 822.795 205.351 823.068 205.842C823.346 206.333 823.733 206.718 824.231 206.996C824.728 207.274 825.305 207.413 825.962 207.413C826.619 207.413 827.193 207.274 827.684 206.996C828.181 206.718 828.569 206.333 828.847 205.842C829.125 205.351 829.264 204.791 829.264 204.164V192.818ZM847.81 196.387V192.818H863.177V196.387H857.664V211H853.332V196.387H847.81ZM888.323 192.818H892.709V204.546C892.709 205.901 892.386 207.082 891.741 208.088C891.096 209.088 890.196 209.864 889.042 210.414C887.888 210.959 886.547 211.231 885.02 211.231C883.476 211.231 882.126 210.959 880.972 210.414C879.818 209.864 878.921 209.088 878.282 208.088C877.643 207.082 877.323 205.901 877.323 204.546V192.818H881.718V204.164C881.718 204.791 881.854 205.351 882.126 205.842C882.404 206.333 882.792 206.718 883.289 206.996C883.786 207.274 884.363 207.413 885.02 207.413C885.677 207.413 886.251 207.274 886.743 206.996C887.24 206.718 887.628 206.333 887.906 205.842C888.184 205.351 888.323 204.791 888.323 204.164V192.818ZM907.463 211V192.818H914.974C916.335 192.818 917.51 193.064 918.498 193.555C919.492 194.04 920.259 194.739 920.797 195.65C921.336 196.556 921.605 197.63 921.605 198.873C921.605 200.134 921.33 201.205 920.78 202.087C920.229 202.963 919.448 203.631 918.436 204.093C917.424 204.549 916.225 204.777 914.84 204.777H910.091V201.314H914.024C914.687 201.314 915.24 201.228 915.684 201.057C916.134 200.879 916.474 200.613 916.705 200.258C916.936 199.897 917.051 199.435 917.051 198.873C917.051 198.311 916.936 197.846 916.705 197.479C916.474 197.106 916.134 196.828 915.684 196.645C915.234 196.455 914.681 196.36 914.024 196.36H911.858V211H907.463ZM917.699 202.69L922.227 211H917.433L912.994 202.69H917.699ZM936.016 211V192.818H948.693V196.387H940.41V200.116H948.045V203.694H940.41V207.431H948.693V211H936.016Z" fill="black"/>
</svg>
