<svg width="18" height="16" viewBox="0 0 18 16" fill="none" xmlns="http://www.w3.org/2000/svg">
<path fill-rule="evenodd" clip-rule="evenodd" d="M0.561735 8.00011C0.561735 8.27722 0.671816 8.54298 0.867764 8.73893C1.06371 8.93488 1.32948 9.04496 1.60659 9.04496H13.7123L9.22566 13.5295C9.12851 13.6266 9.05145 13.7419 8.99887 13.8689C8.9463 13.9958 8.91924 14.1318 8.91924 14.2692C8.91924 14.4066 8.9463 14.5427 8.99887 14.6696C9.05145 14.7965 9.12851 14.9118 9.22566 15.009C9.3228 15.1061 9.43813 15.1832 9.56506 15.2358C9.69199 15.2883 9.82803 15.3154 9.96541 15.3154C10.1028 15.3154 10.2388 15.2883 10.3658 15.2358C10.4927 15.1832 10.608 15.1061 10.7052 15.009L16.9743 8.73986C17.0716 8.6428 17.1488 8.5275 17.2015 8.40056C17.2541 8.27362 17.2813 8.13754 17.2812 8.00011C17.2813 7.86267 17.2541 7.72659 17.2015 7.59965C17.1488 7.47271 17.0716 7.35741 16.9743 7.26035L10.7052 0.991232C10.509 0.795036 10.2429 0.684814 9.96541 0.684814C9.68795 0.684814 9.42185 0.795036 9.22566 0.991232C9.02946 1.18743 8.91924 1.45353 8.91924 1.73099C8.91924 2.00845 9.02946 2.27455 9.22566 2.47074L13.7123 6.95525H1.60659C1.32948 6.95525 1.06371 7.06534 0.867764 7.26128C0.671816 7.45723 0.561735 7.72299 0.561735 8.00011Z" fill="white"/>
</svg>
