<svg width="16" height="18" viewBox="0 0 16 18" fill="none" xmlns="http://www.w3.org/2000/svg">
<path d="M11 16.88C11.04 17.18 10.94 17.5 10.71 17.71C10.32 18.1 9.68998 18.1 9.29998 17.71L5.28998 13.7C5.05998 13.47 4.95998 13.16 4.99998 12.87V7.75L0.20998 1.62C-0.13002 1.19 -0.0500202 0.56 0.37998 0.22C0.56998 0.08 0.77998 0 0.99998 0H15C15.22 0 15.43 0.08 15.62 0.22C16.05 0.56 16.13 1.19 15.79 1.62L11 7.75V16.88ZM3.03998 2L6.99998 7.06V12.58L8.99998 14.58V7.05L12.96 2H3.03998Z" fill="black"/>
</svg>
