<svg width="449" height="900" viewBox="0 0 449 900" fill="none" xmlns="http://www.w3.org/2000/svg">
<path d="M-16.05 28.2906H-4.7709C37.8517 28.301 78.725 45.24 108.86 75.3824C138.995 105.525 155.924 146.402 155.924 189.025V495.663H-176.833V189.025C-176.833 167.913 -172.674 147.008 -164.593 127.503C-156.513 107.999 -144.669 90.2775 -129.738 75.3513C-114.807 60.4251 -97.0821 48.5865 -77.5753 40.5117C-58.0685 32.437 -37.162 28.2842 -16.05 28.2906Z" fill="#FFB7D5"/>
<path d="M49.9616 311.08V500.437H-97.6936V311.08H49.9616ZM53.8745 307.167H-101.607V504.35H53.8745V307.167Z" fill="#CA7358"/>
<path d="M53.8745 307.157H-101.607V347.92H53.8745V307.157Z" fill="#CA7358"/>
<path d="M172.016 149.436V500.437H54.7057V149.436H172.016ZM175.929 145.523H50.7928V504.35H175.929V145.523Z" fill="#CA7358"/>
<path d="M101.662 193.398H102.786C107.036 193.398 111.112 195.086 114.117 198.091C117.122 201.096 118.81 205.172 118.81 209.421V245.538H85.6282V209.421C85.6282 207.316 86.043 205.232 86.8488 203.287C87.6547 201.342 88.8359 199.575 90.3248 198.087C91.8138 196.599 93.5814 195.419 95.5266 194.615C97.4718 193.81 99.5564 193.396 101.662 193.398Z" fill="#CA7358"/>
<path d="M81.8425 221.835H122.606" stroke="#FFB7D5" stroke-width="4" stroke-linecap="round" stroke-linejoin="round"/>
<path d="M101.662 286.937H102.786C107.036 286.937 111.112 288.625 114.117 291.63C117.122 294.635 118.81 298.711 118.81 302.96V339.077H85.6282V302.96C85.6282 300.855 86.043 298.771 86.8488 296.826C87.6547 294.881 88.8359 293.114 90.3248 291.626C91.8138 290.138 93.5814 288.958 95.5266 288.154C97.4718 287.349 99.5564 286.935 101.662 286.937Z" fill="#F5EBDD"/>
<path d="M81.8425 315.374H122.606" stroke="#FFB7D5" stroke-width="4" stroke-linecap="round" stroke-linejoin="round"/>
<path d="M101.662 380.476H102.786C107.036 380.476 111.112 382.164 114.117 385.169C117.122 388.174 118.81 392.249 118.81 396.499V432.616H85.6282V396.499C85.6282 392.249 87.3164 388.174 90.3214 385.169C93.3264 382.164 97.402 380.476 101.652 380.476H101.662Z" fill="#F5EBDD"/>
<path d="M81.8425 408.913H122.606" stroke="#FFB7D5" stroke-width="4" stroke-linecap="round" stroke-linejoin="round"/>
<path d="M101.662 474.015H102.786C107.036 474.015 111.112 475.703 114.117 478.708C117.122 481.713 118.81 485.789 118.81 490.038V523.22H85.6282V490.038C85.6282 487.933 86.043 485.849 86.8488 483.904C87.6547 481.96 88.8359 480.193 90.3248 478.705C91.8138 477.217 93.5814 476.036 95.5266 475.232C97.4718 474.427 99.5564 474.014 101.662 474.015Z" fill="#30242A"/>
<path d="M175.929 145.523H50.7928V161.165H175.929V145.523Z" fill="#CA7358"/>
<path d="M22.1111 384.897H-11.0707V427.558H22.1111V384.897Z" fill="#30242A"/>
<path d="M-14.8563 403.856H25.9069" stroke="#FFB7D5" stroke-width="4" stroke-linecap="round" stroke-linejoin="round"/>
<path d="M5.51996 429.456V403.856" stroke="#FFB7D5" stroke-width="4" stroke-linecap="round" stroke-linejoin="round"/>
<path d="M22.1111 461.943H-11.0707V504.604H22.1111V461.943Z" fill="#F5EBDD"/>
<path d="M-14.8563 480.902H25.9069" stroke="#FFB7D5" stroke-width="4" stroke-linecap="round" stroke-linejoin="round"/>
<path d="M5.51996 506.502V480.902" stroke="#FFB7D5" stroke-width="4" stroke-linecap="round" stroke-linejoin="round"/>
<path d="M198.585 495.82H-219.494V524.257H198.585V495.82Z" fill="#F5EBDD"/>
<path d="M-3.85104 0H-17.0279C-120.975 0 -205.241 84.2654 -205.241 188.213V524.257H184.401V188.213C184.372 84.2654 100.096 0 -3.85104 0ZM-24.6679 495.82H-176.833V258.812H-24.6679V495.82ZM-24.6679 230.375H-176.833V189.181C-176.831 148.036 -161.052 108.457 -132.744 78.5966C-104.436 48.7363 -65.7551 30.8682 -24.6679 28.6721V230.375ZM155.925 495.82H3.76947V258.812H155.925V495.82ZM155.925 230.375H3.76947V28.6721C44.8557 30.8682 83.5354 48.7367 111.842 78.5973C140.148 108.458 155.926 148.036 155.925 189.181V230.375Z" fill="#F5EBDD"/>
<path d="M319.535 551.726C319.541 552.773 319.327 553.809 318.909 554.768C315.974 561.45 303.433 562.438 290.96 556.969C280.513 552.401 273.411 544.751 273.107 538.461V621.885H319.564V551.726H319.535Z" fill="#FFBE21"/>
<path d="M301.672 532.797C289.199 527.329 276.678 528.317 273.723 534.998C273.248 536.095 273.037 537.288 273.107 538.481C273.41 544.771 280.512 552.421 290.96 556.989C303.433 562.457 315.954 561.469 318.908 554.788C319.327 553.829 319.54 552.792 319.534 551.746C319.564 545.377 312.374 537.473 301.672 532.797Z" fill="#A15842"/>
<path d="M355.152 579.244C354.849 585.534 347.747 593.184 337.299 597.762C324.817 603.221 312.305 602.242 309.341 595.551C308.927 594.594 308.714 593.562 308.715 592.519V621.866H355.162V579.244H355.152Z" fill="#FFBE21"/>
<path d="M354.536 575.761C351.601 569.08 339.06 568.092 326.578 573.56C315.885 578.246 308.695 586.14 308.715 592.519C308.714 593.562 308.927 594.594 309.341 595.551C312.276 602.242 324.817 603.22 337.299 597.762C347.747 593.184 354.849 585.534 355.152 579.244C355.222 578.051 355.011 576.858 354.536 575.761Z" fill="#A15842"/>
<path d="M310.075 621.905V593.467" stroke="#A15842" stroke-width="4" stroke-miterlimit="10" stroke-linecap="round"/>
<path d="M296.331 526.624V542.746" stroke="#30242A" stroke-width="4" stroke-linecap="round" stroke-linejoin="round"/>
<path d="M331.939 567.398V584.458" stroke="#30242A" stroke-width="4" stroke-linecap="round" stroke-linejoin="round"/>
<path d="M97.4256 899C96.2397 899.001 95.0706 898.721 94.0143 898.182C92.958 897.643 92.0447 896.861 91.3495 895.9C90.6543 894.939 90.197 893.827 90.0152 892.656C89.8335 891.484 89.9324 890.285 90.304 889.159L113.782 817.611C114.277 816.111 115.233 814.806 116.514 813.88C117.794 812.955 119.333 812.456 120.913 812.456H137.367C138.674 812.455 139.959 812.796 141.093 813.445C142.228 814.094 143.173 815.029 143.835 816.156C144.496 817.284 144.851 818.565 144.865 819.872C144.878 821.179 144.55 822.467 143.911 823.608L103.941 895.156C103.294 896.318 102.35 897.286 101.205 897.962C100.06 898.638 98.7551 898.996 97.4256 899Z" fill="#30242A"/>
<path d="M411.948 899C413.134 899.001 414.303 898.721 415.36 898.182C416.416 897.643 417.329 896.861 418.024 895.9C418.72 894.939 419.177 893.827 419.359 892.656C419.541 891.484 419.442 890.285 419.07 889.159L395.592 817.611C395.097 816.113 394.143 814.808 392.864 813.883C391.586 812.958 390.049 812.458 388.471 812.456H372.007C370.701 812.458 369.418 812.801 368.285 813.451C367.152 814.1 366.209 815.035 365.548 816.161C364.887 817.288 364.531 818.567 364.516 819.873C364.501 821.179 364.827 822.466 365.463 823.608L405.433 895.156C406.081 896.316 407.026 897.284 408.171 897.959C409.316 898.635 410.619 898.994 411.948 899Z" fill="#30242A"/>
<path d="M448.251 621.905H62.4047V842.791H448.251V621.905Z" fill="#A15842"/>
<path d="M419.804 650.342H90.8425V814.354H419.804V650.342Z" fill="#FFB7D5"/>
<path d="M254.971 647.505V817.2" stroke="#A15842" stroke-width="4" stroke-miterlimit="10"/>
<path d="M293.739 742.287C299.228 742.287 303.678 737.837 303.678 732.348C303.678 726.859 299.228 722.409 293.739 722.409C288.25 722.409 283.8 726.859 283.8 732.348C283.8 737.837 288.25 742.287 293.739 742.287Z" fill="#30242A"/>
<path d="M216.907 742.287C222.397 742.287 226.846 737.837 226.846 732.348C226.846 726.859 222.397 722.409 216.907 722.409C211.418 722.409 206.969 726.859 206.969 732.348C206.969 737.837 211.418 742.287 216.907 742.287Z" fill="#30242A"/>
<path d="M-0.0460281 852.28L-77.5225 887.418C-78.8344 888.335 -79.7536 889.712 -80.0978 891.275C-80.442 892.838 -80.186 894.473 -79.3806 895.856C-78.5751 897.239 -77.2791 898.269 -75.7498 898.741C-74.2204 899.213 -72.5695 899.092 -71.1248 898.404L46.4398 843.623C41.8324 830.905 29.9859 826.014 1.92023 821.123L0.717026 820.898C-1.60857 831.205 -1.86793 841.872 -0.0460281 852.28Z" fill="#3EC1F3"/>
<path d="M0.716667 820.859C-7.36358 819.313 -13.7026 816.623 -18.9362 812.554C-28.5816 805.041 -34.4901 792.813 -40.6628 774.402L-118.452 810.832C-111.859 825.985 -102.605 841.92 -93.7909 855.831C-86.0921 867.941 -78.7456 878.497 -73.8055 885.569L-76.613 886.929C-76.9317 887.085 -77.2362 887.268 -77.5228 887.477L-0.0463867 852.339C-1.88138 841.898 -1.62198 831.198 0.716667 820.859Z" fill="#A15842"/>
<path d="M210.901 423.968C210.901 423.968 203.212 441.264 183.041 441.264C162.87 441.264 155.142 423.968 155.142 423.968C155.142 423.968 98.404 553.683 154.164 621.905H211.811C267.541 553.683 210.901 423.968 210.901 423.968Z" fill="#3EC1F3"/>
<path d="M182.992 441.264C203.163 441.264 210.852 423.968 210.852 423.968H155.093C155.093 423.968 162.811 441.264 182.992 441.264Z" fill="#30242A"/>
<path d="M235.103 539.449C203.74 540.007 166.626 551.335 138.062 591.296" stroke="#F5EBDD" stroke-width="4" stroke-linecap="round" stroke-linejoin="round"/>
<path d="M133.043 507.705C154.095 502.569 193.958 497.678 232.598 506.874" stroke="#F5EBDD" stroke-width="4" stroke-linecap="round" stroke-linejoin="round"/>
<path d="M232.422 572.748C218.394 572.915 192.461 588.811 195.317 620.848" stroke="#F5EBDD" stroke-width="4" stroke-linecap="round" stroke-linejoin="round"/>
<path d="M179.461 435.511C178.874 421.571 175.166 366.174 153.156 333.677" stroke="#30242A" stroke-width="4" stroke-miterlimit="10" stroke-linecap="round"/>
<path d="M174.873 392.914C177.687 388.144 162.771 374.132 141.557 361.616C120.343 349.1 100.865 342.82 98.051 347.59C95.2371 352.359 110.153 366.372 131.367 378.888C152.581 391.404 172.059 397.683 174.873 392.914Z" fill="#30242A"/>
<path d="M166.635 254.666C170.765 252.311 168.642 240.806 161.894 228.97C155.145 217.133 146.326 209.446 142.195 211.801C138.065 214.156 140.188 225.661 146.937 237.497C153.686 249.334 162.505 257.021 166.635 254.666Z" fill="#30242A"/>
<path d="M93.9824 304.848C96.203 299.908 106.651 299.546 119.348 303.332C111.522 289.333 109.126 276.313 114.3 272.958C119.475 269.602 130.412 277.027 140.008 289.911C141.701 276.773 146.279 267.411 151.747 267.352C158.654 267.352 164.308 282.584 164.376 301.424C164.418 306.812 163.94 312.191 162.948 317.487C159.937 316.108 156.628 315.503 153.324 315.728C150.019 315.952 146.823 316.999 144.026 318.773C141.229 320.546 138.919 322.991 137.307 325.884C135.695 328.778 134.831 332.028 134.794 335.34C129.73 334.098 124.791 332.389 120.043 330.234C102.796 322.515 91.1553 311.158 93.9824 304.848Z" fill="#4756DF"/>
<path d="M143.804 318.905C146.61 317.081 149.833 315.996 153.172 315.751C156.51 315.507 159.856 316.11 162.899 317.506C161.216 326.262 158.174 332.757 154.515 334.87C151.033 337.404 143.657 337.502 134.745 335.359C134.782 332.083 135.628 328.866 137.209 325.995C138.789 323.124 141.055 320.689 143.804 318.905Z" fill="#30242A"/>
<path d="M186.797 434.67C189.497 419.273 203.555 343.782 226.054 301.072" stroke="#30242A" stroke-width="4" stroke-miterlimit="10" stroke-linecap="round"/>
<path d="M301.997 405.692C303.615 400.696 282.003 389.22 253.724 380.059C225.446 370.898 201.209 367.521 199.591 372.517C197.973 377.513 219.585 388.989 247.863 398.15C276.142 407.311 300.378 410.688 301.997 405.692Z" fill="#30242A"/>
<path d="M221.818 234.895C227.218 234.405 232.657 243.337 235.582 256.259C243.916 242.564 254.11 234.092 259.578 236.959C265.046 239.825 263.931 252.992 257.406 267.675C269.693 262.716 280.131 262.09 282.841 266.805C286.245 272.811 275.729 285.225 259.363 294.518C254.695 297.194 249.781 299.415 244.689 301.151C244.41 297.854 243.313 294.678 241.497 291.913C239.682 289.147 237.204 286.878 234.29 285.311C231.376 283.744 228.117 282.929 224.809 282.939C221.5 282.95 218.246 283.786 215.342 285.372C213.945 280.345 213.012 275.201 212.554 270.004C210.744 251.241 214.941 235.521 221.818 234.895Z" fill="#4756DF"/>
<path d="M234.017 285.195C236.984 286.747 239.51 289.024 241.362 291.813C243.214 294.602 244.332 297.814 244.611 301.15C236.149 303.977 228.959 304.516 225.359 302.363C221.447 300.573 217.739 294.185 215.235 285.371C218.108 283.794 221.326 282.953 224.604 282.922C227.881 282.892 231.115 283.673 234.017 285.195Z" fill="#30242A"/>
<path d="M280.141 324.452V324.53C275.54 326.427 271.817 329.98 269.707 334.486C267.596 338.993 267.251 344.127 268.739 348.876C270.228 353.625 273.441 357.644 277.747 360.139C282.052 362.635 287.137 363.427 291.997 362.359V362.437C266.221 370.508 242.665 368.551 239.378 358.055C236.091 347.558 254.365 332.523 280.141 324.452Z" fill="#4756DF"/>
<path d="M274.007 357.35C276.268 356.445 278.103 354.718 279.144 352.516C280.186 350.315 280.357 347.801 279.623 345.479C278.89 343.157 277.305 341.197 275.188 339.994C273.071 338.79 270.577 338.431 268.206 338.989C268.856 335.782 270.287 332.784 272.372 330.262C274.458 327.74 277.133 325.772 280.16 324.53L292.017 362.359C288.834 363.062 285.528 362.973 282.388 362.1C279.247 361.227 276.37 359.596 274.007 357.35Z" fill="#FFB7D5"/>
<path d="M279.583 345.514C280.31 347.826 280.139 350.328 279.106 352.52C278.073 354.713 276.253 356.437 274.008 357.35C271.566 355.031 269.753 352.129 268.738 348.918C267.723 345.707 267.541 342.29 268.207 338.989C270.576 338.446 273.063 338.817 275.171 340.026C277.28 341.235 278.855 343.195 279.583 345.514Z" fill="#30242A"/>
</svg>
