<svg width="405" height="900" viewBox="0 0 405 900" fill="none" xmlns="http://www.w3.org/2000/svg">
<path d="M548.201 28.2906H559.48C602.103 28.301 642.976 45.24 673.111 75.3824C703.246 105.525 720.175 146.402 720.175 189.025V495.663H387.418V189.025C387.418 167.913 391.577 147.008 399.658 127.503C407.739 107.999 419.582 90.2775 434.513 75.3513C449.444 60.4251 467.169 48.5865 486.676 40.5117C506.183 32.437 527.089 28.2842 548.201 28.2906Z" fill="#FFB7D5"/>
<path d="M461.813 208.687V501.386H372.94V208.687H461.813ZM465.726 204.774H369.027V505.299H465.726V204.774Z" fill="#CA7358"/>
<path d="M465.726 197.193H369.027V212.835H465.726V197.193Z" fill="#CA7358"/>
<path d="M762.836 495.82H344.757V524.257H762.836V495.82Z" fill="#F5EBDD"/>
<path d="M560.4 0H547.223C443.275 0 359.01 84.2654 359.01 188.213V524.257H748.652V188.213C748.623 84.2654 664.347 0 560.4 0ZM539.583 495.82H387.418V258.812H539.583V495.82ZM539.583 230.375H387.418V189.181C387.42 148.036 403.199 108.457 431.507 78.5966C459.815 48.7363 498.496 30.8682 539.583 28.6721V230.375ZM720.175 495.82H568.02V258.812H720.175V495.82ZM720.175 230.375H568.02V28.6721C609.107 30.8682 647.786 48.7367 676.093 78.5973C704.399 108.458 720.176 148.036 720.175 189.181V230.375Z" fill="#F5EBDD"/>
<path d="M38.1675 898.727C59.1082 898.727 76.084 881.751 76.084 860.81C76.084 839.869 59.1082 822.894 38.1675 822.894C17.2268 822.894 0.250977 839.869 0.250977 860.81C0.250977 881.751 17.2268 898.727 38.1675 898.727Z" fill="#FFB7D5"/>
<path d="M152.778 807.046V823.158H292.138V807.046H152.778Z" fill="#A15842"/>
<path d="M315.097 890.666L280.575 683.524H301.686C303.948 683.524 306.118 682.625 307.717 681.026C309.317 679.426 310.216 677.256 310.216 674.994C310.216 672.731 309.317 670.562 307.717 668.962C306.118 667.362 303.948 666.464 301.686 666.464H143.397C141.135 666.464 138.965 667.362 137.365 668.962C135.765 670.562 134.867 672.731 134.867 674.994C134.867 677.256 135.765 679.426 137.365 681.026C138.965 682.625 141.135 683.524 143.397 683.524H164.341L129.819 890.666C129.649 891.691 129.704 892.742 129.98 893.744C130.256 894.746 130.748 895.676 131.42 896.469C132.092 897.262 132.929 897.899 133.872 898.337C134.815 898.774 135.842 899 136.882 899C138.516 899.002 140.102 898.443 141.374 897.418C142.647 896.393 143.53 894.963 143.876 893.366L189.619 683.524H255.298L301.03 893.366C301.38 894.963 302.266 896.392 303.54 897.417C304.814 898.442 306.399 899 308.034 899C309.074 899 310.101 898.774 311.044 898.337C311.988 897.899 312.824 897.262 313.496 896.469C314.169 895.676 314.66 894.746 314.936 893.744C315.213 892.742 315.268 891.691 315.097 890.666Z" fill="#FFBE21"/>
<path d="M301.686 683.524C303.948 683.524 306.118 682.625 307.717 681.026C309.317 679.426 310.216 677.256 310.216 674.994C310.216 672.731 309.317 670.562 307.717 668.962C306.118 667.362 303.948 666.464 301.686 666.464H143.397C141.135 666.464 138.965 667.362 137.365 668.962C135.765 670.562 134.867 672.731 134.867 674.994C134.867 677.256 135.765 679.426 137.365 681.026C138.965 682.625 141.135 683.524 143.397 683.524H164.341V683.788H189.599L189.658 683.524H255.337L255.395 683.788H280.653V683.524H301.686Z" fill="#A15842"/>
<path d="M311.066 806.772H411.825C413.077 785.378 417.548 757 421.255 718.662C424.552 684.669 427.389 656.133 427.203 632.577C426.89 593.311 326.444 640.834 326.444 640.834C326.444 649.413 328.176 657.65 328.225 665.632C328.342 686.371 317.836 704.018 310.333 729.032C298.956 766.958 308.435 806.772 308.435 806.772H311.066Z" fill="#4856DF"/>
<path d="M417.195 888.299H328.988C327.763 888.689 326.719 889.503 326.042 890.596C325.365 891.688 325.101 892.986 325.297 894.256C325.493 895.526 326.136 896.684 327.11 897.522C328.085 898.359 329.326 898.821 330.611 898.824L460.414 899C461.558 886.381 454.388 876.883 434.158 862.806C422.615 872.813 417.195 888.299 417.195 888.299Z" fill="#3EC1F3"/>
<path d="M429.609 859.744C425.419 857.035 421.8 853.533 418.956 849.433C412.108 839.387 410.661 825.858 411.786 806.772H324.468C324.637 821.042 325.666 835.288 327.549 849.433C329.78 865.447 332.793 876.462 335.209 888.045H330.621C330.067 888.044 329.515 888.13 328.987 888.299H417.195C417.195 888.299 422.615 872.813 434.158 862.865C432.71 861.841 431.194 860.801 429.609 859.744Z" fill="#A15842"/>
<path d="M412.842 789.633C407.442 778.884 403.761 767.354 401.935 755.464C395.547 711.081 399.333 688.327 381.323 668.4H328.626" stroke="#30242A" stroke-width="4" stroke-linecap="round" stroke-linejoin="round"/>
<path d="M445.701 810.558L445.799 810.793L523.589 774.363C517.533 756.246 511.204 732.142 500.805 700.594C491.062 671.071 484.616 649.012 478.511 631.941C469.975 638.091 459.447 640.827 448.997 639.613C438.546 638.398 428.927 633.322 422.027 625.379C415.127 617.437 411.445 607.202 411.704 596.684C411.963 586.166 416.145 576.125 423.427 568.532C381.901 549.769 234.412 537.532 234.412 537.532L150.978 525.206C146.576 532.484 142.829 544.017 140.794 557.488H169.946V588.664C169.93 594.968 167.417 601.009 162.955 605.463C158.494 609.917 152.449 612.42 146.145 612.426H144.482C144.091 612.426 143.7 612.426 143.318 612.426C151.281 641.773 171.765 666.493 213.575 666.493H382.321C400.331 686.4 396.545 709.154 402.933 753.556C408.157 789.878 432.916 816.652 432.916 816.652L445.701 810.558Z" fill="#4856DF"/>
<path d="M146.146 612.426C152.461 612.426 158.519 609.917 162.985 605.452C167.452 600.987 169.963 594.931 169.966 588.615V557.439H140.814C138.241 574.353 138.388 594.25 143.318 612.396C143.7 612.396 144.091 612.396 144.483 612.396L146.146 612.426Z" fill="#3EC1F3"/>
<path d="M380.883 668.831H409.321" stroke="#30242A" stroke-width="4" stroke-linecap="round" stroke-linejoin="round"/>
<path d="M503.202 367.358C503.202 367.358 452.011 308.585 391.526 287.269" stroke="#30242A" stroke-width="4" stroke-linecap="round" stroke-linejoin="round"/>
<path d="M342.634 310.229C340.776 305.738 346.978 298.695 357.308 292.747C343.319 289.265 333.38 282.779 334.378 277.33C335.376 271.882 346.958 269.319 361.28 271.001C353.747 261.806 350.431 253.021 353.757 249.48C357.993 244.951 371.434 250.664 383.769 262.197C394.53 272.273 400.888 283.484 399.538 289.187C398.785 294.997 388.876 303.234 375.259 308.869C359.597 315.364 345.011 315.971 342.634 310.229Z" fill="#4756DF"/>
<path d="M400.047 307.44C409.912 307.44 417.909 299.443 417.909 289.578C417.909 279.713 409.912 271.715 400.047 271.715C390.181 271.715 382.184 279.713 382.184 289.578C382.184 299.443 390.181 307.44 400.047 307.44Z" fill="#30242A"/>
<path d="M437.683 312.583C442.591 310.761 440.36 292.561 432.701 271.932C425.041 251.303 414.853 236.057 409.945 237.88C405.038 239.702 407.268 257.902 414.928 278.531C422.587 299.16 432.775 314.406 437.683 312.583Z" fill="#30242A"/>
<path d="M298.379 233.094C282.199 251.299 265.001 255.32 265.001 255.32C253.879 243.19 233.698 243.19 230.616 260.377C227.261 279.424 250.817 284.667 250.817 284.667C250.817 284.667 256.755 309.24 247.647 321.38C239.606 332.141 229.276 333.912 208.107 336.279C235.693 382.892 263.866 379.214 273.248 379.214C295.747 379.214 302.086 353.105 303.857 339.644C298.734 337.858 293.507 336.384 288.205 335.232L285.173 317.037C285.173 317.037 299.328 322.085 311.468 315.012C323.607 307.939 326.64 294.782 322.59 274.562C320.193 262.578 320.281 247.758 318.227 234.513C310.215 235.873 298.379 233.094 298.379 233.094Z" fill="#A15842"/>
<path d="M466.675 334.655C462.38 317.467 428.758 308.145 428.758 308.145C428.758 308.145 430.773 269.563 422.116 268.331C415.484 267.352 408.841 283.503 403.158 314.787C396.799 349.749 400.311 414.323 400.311 414.323C400.311 414.323 393.278 407.935 383.3 399.043C382.303 401.058 380.773 402.762 378.876 403.969C376.979 405.177 374.787 405.841 372.539 405.89C373.958 407.689 374.847 409.847 375.105 412.123C375.364 414.399 374.983 416.702 374.004 418.773C373.025 420.844 371.487 422.6 369.564 423.845C367.641 425.089 365.409 425.772 363.119 425.817C364.537 427.615 365.426 429.774 365.685 432.05C365.944 434.326 365.562 436.629 364.583 438.7C363.604 440.77 362.067 442.527 360.144 443.771C358.22 445.016 355.988 445.699 353.698 445.744C355.187 447.632 356.09 449.914 356.296 452.31C356.502 454.705 356.002 457.108 354.858 459.223C353.713 461.337 351.974 463.07 349.856 464.207C347.737 465.344 345.332 465.836 342.938 465.622C363.705 479.141 391.937 494.91 410.749 494.91C509.336 494.871 469.521 346.032 466.675 334.655Z" fill="#A15842"/>
<path d="M355.126 458.588C356.104 456.517 356.485 454.215 356.228 451.939C355.971 449.664 355.084 447.505 353.668 445.705C355.959 445.66 358.191 444.977 360.114 443.732C362.037 442.488 363.574 440.731 364.553 438.661C365.532 436.59 365.914 434.287 365.655 432.011C365.396 429.735 364.508 427.576 363.089 425.778C365.379 425.733 367.611 425.05 369.534 423.806C371.457 422.561 372.995 420.805 373.974 418.734C374.953 416.663 375.334 414.36 375.076 412.084C374.817 409.808 373.928 407.65 372.509 405.851C374.757 405.802 376.949 405.138 378.846 403.93C380.743 402.723 382.273 401.019 383.27 399.004C366.072 383.685 340.139 360.97 326.336 350.767C319.655 345.827 311.144 342.168 303.837 339.644C302.115 353.144 295.815 379.214 273.316 379.214C263.974 379.214 235.761 382.892 208.175 336.279L199.312 337.257C168.791 340.652 154.9 357.076 146.722 376.7C141.665 388.84 137.615 411.085 137.615 411.085C134.477 431.48 132.862 452.079 132.782 472.714L172.469 509.447L279.019 512.078C287.549 499.498 303.201 476.265 308.366 467.353C314.999 455.976 315.948 446.497 315.948 446.497C315.948 446.497 327.334 455.399 342.937 465.563C345.438 465.782 347.945 465.232 350.124 463.985C352.303 462.738 354.048 460.855 355.126 458.588Z" fill="#FFBE21"/>
<path d="M309.511 210.84C297.381 195.677 264.003 185.562 237.708 204.775C211.413 223.987 213.438 255.34 214.446 267.48C214.446 267.48 186.136 258.372 165.906 279.61C160.051 285.681 155.787 293.106 153.493 301.222C151.2 309.339 150.947 317.897 152.758 326.135C152.758 326.135 115.507 325.088 108.258 359.512C104.14 379.077 111.829 392.097 120.359 400.158C125.362 404.853 131.207 408.56 137.586 411.085C137.586 411.085 141.636 388.84 146.693 376.7C154.871 357.076 168.762 340.652 199.283 337.257L208.146 336.279C229.315 333.912 239.645 332.112 247.686 321.381C256.784 309.241 250.817 284.667 250.817 284.667C250.817 284.667 227.231 279.424 230.587 260.397C233.629 243.21 253.849 243.21 264.972 255.34C264.972 255.34 282.169 251.3 298.349 233.095C298.349 233.095 310.186 235.873 318.256 234.513C316.877 225.396 314.451 217.032 309.511 210.84Z" fill="#30242A"/>
<path d="M150.958 326.956C152.03 332.025 153.962 336.872 156.671 341.288" stroke="black" stroke-width="4" stroke-miterlimit="10" stroke-linecap="round"/>
<path d="M398.413 415.546L400.79 445.098" stroke="#30242A" stroke-width="4" stroke-linecap="round" stroke-linejoin="round"/>
<path d="M312.622 413.795C318.814 424.946 318.736 438.329 317.934 446.262" stroke="#30242A" stroke-width="4" stroke-linecap="round" stroke-linejoin="round"/>
<path d="M256.686 445.098L226.351 446.047" stroke="#30242A" stroke-width="4" stroke-linecap="round" stroke-linejoin="round"/>
<path d="M284.654 318.905C280.415 317.241 276.279 315.324 272.27 313.163" stroke="#30242A" stroke-width="4" stroke-linecap="round" stroke-linejoin="round"/>
<path d="M292.235 346.981L290.582 336.504" stroke="#30242A" stroke-width="4" stroke-linecap="round" stroke-linejoin="round"/>
<path d="M212.402 267.861L214.505 285.352" stroke="black" stroke-width="4" stroke-miterlimit="10" stroke-linecap="round"/>
<path d="M312.622 288.678C310.48 290.067 303.378 290.527 299.974 284.335" stroke="#30242A" stroke-width="4" stroke-linecap="round" stroke-linejoin="round"/>
<path d="M255.737 268.761L246.258 264.027" stroke="#30242A" stroke-width="4" stroke-linecap="round" stroke-linejoin="round"/>
<path d="M299.504 264.564C297.987 266.628 290.836 270.629 285.456 266.061" stroke="#30242A" stroke-width="4" stroke-linecap="round" stroke-linejoin="round"/>
<path d="M322.541 261.581C321.409 261.821 320.24 261.836 319.102 261.625C317.964 261.413 316.879 260.98 315.908 260.348" stroke="#30242A" stroke-width="4" stroke-linecap="round" stroke-linejoin="round"/>
<path d="M309.716 265.102C310.802 267.558 311.849 270.268 311.624 271.305C311.29 272.566 310.538 273.676 309.491 274.454" stroke="#30242A" stroke-width="4" stroke-linecap="round" stroke-linejoin="round"/>
<path d="M250.543 280.216L237.601 292.425C236.9 293.085 236.38 293.915 236.091 294.833C235.802 295.752 235.754 296.729 235.95 297.672C236.146 298.615 236.581 299.492 237.212 300.219C237.844 300.946 238.651 301.499 239.557 301.826L254.857 307.255C255.766 307.576 256.743 307.659 257.693 307.495C258.644 307.331 259.536 306.926 260.285 306.318C261.034 305.711 261.615 304.921 261.971 304.025C262.328 303.128 262.448 302.156 262.321 301.199L259.963 283.591C259.825 282.568 259.409 281.602 258.759 280.799C258.11 279.996 257.252 279.387 256.279 279.039C255.307 278.69 254.258 278.616 253.246 278.824C252.234 279.031 251.299 279.513 250.543 280.216Z" fill="#F4E6D8"/>
<path d="M460.404 560.286H296.217L333.537 442.379C334.64 438.907 336.82 435.878 339.761 433.728C342.702 431.579 346.251 430.422 349.893 430.425H488.636C491.332 430.424 493.99 431.058 496.395 432.277C498.8 433.495 500.883 435.263 502.476 437.438C504.07 439.613 505.128 442.132 505.565 444.792C506.002 447.452 505.806 450.178 504.993 452.748L474.129 550.249C473.202 553.161 471.372 555.703 468.905 557.507C466.438 559.312 463.461 560.285 460.404 560.286Z" fill="#30242A"/>
<path d="M200.927 547.011C200.442 548.538 200.325 550.159 200.584 551.74C200.843 553.321 201.471 554.819 202.417 556.112C203.363 557.405 204.601 558.457 206.03 559.182C207.459 559.907 209.038 560.285 210.641 560.286H460.404C463.458 560.279 466.431 559.301 468.893 557.493C471.355 555.685 473.178 553.141 474.1 550.229L475.078 547.011H200.927Z" fill="#30242A"/>
<path d="M435.254 485.206C431.439 479.982 414.095 493.775 412.823 494.92C412.158 493.775 403.138 479.982 396.516 485.206C390.773 489.735 403.363 509.955 406.758 515.111C406.898 515.268 407.07 515.393 407.262 515.479C407.454 515.565 407.663 515.609 407.873 515.609C408.083 515.609 408.292 515.565 408.484 515.479C408.676 515.393 408.848 515.268 408.988 515.111C415.161 509.907 438.57 489.686 435.254 485.206Z" fill="#FFBE21"/>
<path d="M106.849 453.384C108.98 454.205 111.298 454.419 113.543 454.001C115.788 453.583 117.874 452.55 119.566 451.017C119.767 453.301 120.603 455.484 121.979 457.318C123.354 459.153 125.216 460.566 127.353 461.398C129.489 462.23 131.816 462.449 134.071 462.028C136.325 461.608 138.416 460.565 140.109 459.018C140.315 461.3 141.154 463.479 142.531 465.31C143.908 467.141 145.769 468.551 147.904 469.381C150.039 470.212 152.364 470.43 154.616 470.011C156.868 469.593 158.959 468.553 160.652 467.011C160.809 468.812 161.362 470.556 162.27 472.119C163.179 473.683 164.421 475.026 165.908 476.054C167.396 477.082 169.092 477.768 170.875 478.065C172.659 478.362 174.486 478.262 176.226 477.771L191.017 438.045C196.714 422.795 199.414 406.59 198.97 390.317L197.473 337.492C197.473 337.492 163.343 340.329 143.436 364.981C133.223 377.629 113.179 411.046 100.334 447.377C101.684 450.12 104.007 452.261 106.849 453.384Z" fill="#FFBE21"/>
<path d="M168.469 477.38C166.326 476.555 164.458 475.146 163.075 473.313C161.692 471.481 160.849 469.297 160.643 467.011C158.949 468.553 156.858 469.592 154.606 470.011C152.354 470.43 150.029 470.212 147.894 469.381C145.759 468.551 143.898 467.141 142.521 465.31C141.144 463.479 140.306 461.3 140.1 459.018C138.407 460.565 136.315 461.608 134.061 462.028C131.807 462.449 129.48 462.23 127.343 461.398C125.206 460.566 123.345 459.152 121.969 457.318C120.593 455.483 119.758 453.301 119.557 451.016C118.149 452.299 116.462 453.237 114.63 453.757C112.797 454.277 110.869 454.364 108.997 454.013C107.126 453.661 105.361 452.879 103.842 451.73C102.324 450.58 101.093 449.093 100.246 447.387C89.114 478.877 83.3816 512.567 94.1617 536.818C117.366 589.046 187.006 570.665 203.441 565.832C219.875 561 251.805 544.556 273.081 547.461C294.358 550.366 318.53 561 322.404 547.461C322.404 547.461 335.425 547.128 331.326 534.744C331.326 534.744 337.87 533.932 338.839 529.099C340.795 519.425 317.562 510.728 317.562 510.728C317.562 510.728 335.943 513.663 339.807 509.75C344.698 504.859 339.944 496.964 309.922 489.686C276.945 481.704 233.424 486.536 168.625 498.138L176.207 477.761C173.654 478.478 170.938 478.345 168.469 477.38Z" fill="#A15842"/>
<path d="M191.272 432.772L169.624 495.966" stroke="#30242A" stroke-width="4" stroke-linecap="round" stroke-linejoin="round"/>
<path d="M323.402 511.422C312.896 507.431 295.405 501.307 281.827 499.097" stroke="#30242A" stroke-width="4" stroke-linecap="round" stroke-linejoin="round"/>
<path d="M331.6 534.235C318.1 528.16 292.314 517.136 278.442 515.062" stroke="#30242A" stroke-width="4" stroke-linecap="round" stroke-linejoin="round"/>
<path d="M168.782 496.104C161.504 497.278 150.078 499.224 138.662 501.504" stroke="#30242A" stroke-width="4" stroke-linecap="round" stroke-linejoin="round"/>
<path d="M322.003 548.791C311.879 543.636 290.543 533.384 275.547 530.528" stroke="#30242A" stroke-width="4" stroke-linecap="round" stroke-linejoin="round"/>
</svg>
