<svg width="46" height="47" viewBox="0 0 46 47" fill="none" xmlns="http://www.w3.org/2000/svg">
<path d="M34.4999 19.8375V16.5518H11.4999V19.8375H19.7142V24.329L13.3597 35.4512L16.2117 37.0809L22.3099 26.4089H23.6899L29.7882 37.0809L32.6402 35.4512L26.2857 24.329V19.8375H34.4999Z" fill="white"/>
<path d="M22.9999 14.9091C24.8146 14.9091 26.2856 13.438 26.2856 11.6234C26.2856 9.80871 24.8146 8.33765 22.9999 8.33765C21.1853 8.33765 19.7142 9.80871 19.7142 11.6234C19.7142 13.438 21.1853 14.9091 22.9999 14.9091Z" fill="white"/>
<path d="M22.9999 46.1233C18.451 46.1233 14.0042 44.7744 10.2218 42.2471C6.4395 39.7198 3.49153 36.1277 1.75072 31.925C0.00990448 27.7223 -0.445572 23.0978 0.441888 18.6362C1.32935 14.1747 3.51988 10.0765 6.73649 6.85984C9.9531 3.64324 14.0513 1.4527 18.5129 0.56524C22.9744 -0.32222 27.599 0.133257 31.8017 1.87407C36.0044 3.61489 39.5965 6.56285 42.1237 10.3452C44.651 14.1275 45.9999 18.5743 45.9999 23.1233C45.993 29.2211 43.5675 35.0672 39.2557 39.3791C34.9439 43.6909 29.0978 46.1163 22.9999 46.1233ZM22.9999 3.40902C19.1008 3.40902 15.2893 4.56524 12.0473 6.73147C8.80528 8.8977 6.27845 11.9767 4.78632 15.579C3.2942 19.1813 2.90379 23.1452 3.66447 26.9694C4.42515 30.7936 6.30275 34.3063 9.05984 37.0634C11.8169 39.8205 15.3297 41.6981 19.1539 42.4588C22.9781 43.2195 26.942 42.829 30.5443 41.3369C34.1466 39.8448 37.2255 37.318 39.3918 34.076C41.558 30.834 42.7142 27.0224 42.7142 23.1233C42.7081 17.8966 40.6292 12.8857 36.9333 9.18992C33.2375 5.49409 28.2266 3.4151 22.9999 3.40902Z" fill="white"/>
</svg>
