<svg width="46" height="47" viewBox="0 0 46 47" fill="none" xmlns="http://www.w3.org/2000/svg">
<path d="M22.9999 40.647C32.6781 40.647 40.5237 32.8013 40.5237 23.1232C40.5237 13.445 32.6781 5.59937 22.9999 5.59937C13.3218 5.59937 5.47613 13.445 5.47613 23.1232C5.47613 32.8013 13.3218 40.647 22.9999 40.647Z" stroke="white" stroke-width="4" stroke-linecap="round" stroke-linejoin="round"/>
<path d="M22.9999 31.8851C27.839 31.8851 31.7618 27.9623 31.7618 23.1232C31.7618 18.2842 27.839 14.3613 22.9999 14.3613C18.1609 14.3613 14.238 18.2842 14.238 23.1232C14.238 27.9623 18.1609 31.8851 22.9999 31.8851Z" stroke="white" stroke-width="4" stroke-linecap="round" stroke-linejoin="round"/>
<path d="M29.5714 16.5516L35.0476 11.0754M29.5714 29.6945L35.0476 35.1707M16.4285 29.6945L10.9523 35.1707M16.4285 16.5516L10.9523 11.0754" stroke="white" stroke-width="4" stroke-linecap="round" stroke-linejoin="round"/>
</svg>
