<svg width="46" height="47" viewBox="0 0 46 47" fill="none" xmlns="http://www.w3.org/2000/svg">
<path d="M34.4999 4.43568C34.5004 4.15099 34.4164 3.87257 34.2585 3.6357C34.1006 3.39883 33.8759 3.21419 33.6129 3.10517C33.3499 2.99616 33.0605 2.96769 32.7813 3.02337C32.5021 3.07905 32.2457 3.21637 32.0447 3.41793L26.2947 9.16793C26.1613 9.30167 26.0555 9.4604 25.9835 9.63503C25.9115 9.80966 25.8746 9.99678 25.8749 10.1857V18.2156L23.7446 20.3431C23.3184 20.23 22.8719 20.2162 22.4396 20.3028C22.0073 20.3895 21.6006 20.5742 21.2509 20.8428C20.9012 21.1114 20.6179 21.4566 20.4227 21.852C20.2274 22.2474 20.1256 22.6823 20.1249 23.1232C20.1251 23.5323 20.2126 23.9367 20.3816 24.3093C20.5506 24.682 20.7972 25.0142 21.1049 25.2839C21.4126 25.5536 21.7743 25.7545 22.1659 25.8732C22.5574 25.9919 22.9698 26.0257 23.3754 25.9722C23.7811 25.9188 24.1707 25.7794 24.5181 25.5633C24.8656 25.3473 25.1629 25.0595 25.3903 24.7194C25.6176 24.3792 25.7697 23.9944 25.8364 23.5907C25.9032 23.1871 25.883 22.7738 25.7772 22.3786L27.9076 20.2482H35.9374C36.1263 20.2485 36.3135 20.2116 36.4881 20.1396C36.6627 20.0676 36.8214 19.9618 36.9552 19.8284L42.7052 14.0784C42.9067 13.8774 43.0441 13.621 43.0998 13.3418C43.1554 13.0626 43.127 12.7732 43.0179 12.5102C42.9089 12.2472 42.7243 12.0225 42.4874 11.8646C42.2505 11.7067 41.9721 11.6227 41.6874 11.6232H34.4999V4.43568ZM40.0889 20.7599C40.5837 24.3398 39.9416 27.9846 38.2533 31.1799C36.565 34.3752 33.9158 36.9595 30.6797 38.5682C27.4436 40.1768 23.784 40.7284 20.2175 40.1452C16.651 39.562 13.3577 37.8734 10.8026 35.3177C8.2474 32.7621 6.55943 29.4685 5.97691 25.9019C5.39438 22.3352 5.94673 18.6757 7.55599 15.4399C9.16524 12.2041 11.7501 9.55545 14.9457 7.8678C18.1414 6.18015 21.7863 5.53877 25.3661 6.03418L24.2649 7.1353C23.864 7.53572 23.546 8.01121 23.3289 8.53461C23.1118 9.05801 23.0001 9.61906 22.9999 10.1857C20.4411 10.1857 17.9398 10.9444 15.8122 12.366C13.6847 13.7876 12.0265 15.8082 11.0472 18.1722C10.068 20.5362 9.81183 23.1375 10.311 25.6472C10.8102 28.1568 12.0424 30.462 13.8517 32.2714C15.6611 34.0807 17.9663 35.3129 20.476 35.8121C22.9856 36.3113 25.5869 36.0551 27.9509 35.0759C30.3149 34.0967 32.3355 32.4384 33.7571 30.3109C35.1787 28.1833 35.9374 25.682 35.9374 23.1232C37.0808 23.1222 38.177 22.6672 38.9849 21.8582L40.0889 20.7599ZM22.9999 13.0607C21.0098 13.0607 19.0643 13.6508 17.4095 14.7565C15.7547 15.8622 14.465 17.4337 13.7034 19.2724C12.9418 21.1111 12.7425 23.1343 13.1308 25.0863C13.5191 27.0382 14.4774 28.8312 15.8847 30.2384C17.2919 31.6457 19.0849 32.6041 21.0368 32.9923C22.9888 33.3806 25.012 33.1813 26.8507 32.4197C28.6894 31.6581 30.2609 30.3684 31.3666 28.7136C32.4723 27.0588 33.0624 25.1134 33.0624 23.1232H29.0978L28.7384 23.4826C28.6693 24.587 28.283 25.6481 27.6257 26.5385C26.9684 27.4288 26.0682 28.1106 25.0331 28.5019C23.9979 28.8933 22.8718 28.9776 21.7899 28.7448C20.708 28.5119 19.7163 27.9718 18.9338 27.1893C18.1513 26.4068 17.6112 25.4151 17.3784 24.3332C17.1455 23.2513 17.2299 22.1252 17.6212 21.0901C18.0126 20.0549 18.6943 19.1547 19.5846 18.4974C20.475 17.8402 21.5361 17.4538 22.6406 17.3847L22.9999 17.0253V13.0607Z" fill="white"/>
</svg>
