<svg width="46" height="47" viewBox="0 0 46 47" fill="none" xmlns="http://www.w3.org/2000/svg">
<g clip-path="url(#clip0_18_21)">
<path fill-rule="evenodd" clip-rule="evenodd" d="M6.89985 43.7233H39.0999C41.6897 43.7233 43.5297 42.594 44.6475 41.0415C45.6779 39.6086 45.9999 37.9595 45.9999 36.8233V23.0233C45.9999 22.4133 45.7576 21.8283 45.3263 21.3969C44.8949 20.9656 44.3099 20.7233 43.6999 20.7233H36.7999V9.22326C36.7999 7.39326 36.073 5.63821 34.7789 4.34421C33.4849 3.05021 31.7299 2.32324 29.8999 2.32324H6.89985C5.06985 2.32324 3.3148 3.05021 2.0208 4.34421C0.726796 5.63821 -0.000167847 7.39326 -0.000167847 9.22326V36.8233C-0.000167847 37.9572 0.321833 39.6086 1.35224 41.0415C2.47004 42.5963 4.31004 43.7233 6.89985 43.7233ZM39.0999 25.3233C39.7099 25.3233 40.2949 25.5656 40.7263 25.997C41.1576 26.4283 41.3999 27.0133 41.3999 27.6233V36.8233C41.3999 37.4333 41.1576 38.0183 40.7263 38.4497C40.2949 38.881 39.7099 39.1233 39.0999 39.1233C38.4899 39.1233 37.9049 38.881 37.4736 38.4497C37.0422 38.0183 36.7999 37.4333 36.7999 36.8233V27.6233C36.7999 27.0133 37.0422 26.4283 37.4736 25.997C37.9049 25.5656 38.4899 25.3233 39.0999 25.3233ZM16.0999 18.4233C16.0999 17.8133 16.3422 17.2283 16.7735 16.7969C17.2049 16.3656 17.7899 16.1233 18.3999 16.1233C19.0099 16.1233 19.5949 16.3656 20.0262 16.7969C20.4576 17.2283 20.6999 17.8133 20.6999 18.4233C20.6999 19.0333 20.4576 19.6183 20.0262 20.0496C19.5949 20.481 19.0099 20.7233 18.3999 20.7233C17.7899 20.7233 17.2049 20.481 16.7735 20.0496C16.3422 19.6183 16.0999 19.0333 16.0999 18.4233ZM18.3999 11.5233C16.5699 11.5233 14.8148 12.2502 13.5208 13.5442C12.2268 14.8382 11.4999 16.5933 11.4999 18.4233C11.4999 20.2533 12.2268 22.0083 13.5208 23.3023C14.8148 24.5963 16.5699 25.3233 18.3999 25.3233C20.2299 25.3233 21.9849 24.5963 23.2789 23.3023C24.5729 22.0083 25.2999 20.2533 25.2999 18.4233C25.2999 16.5933 24.5729 14.8382 23.2789 13.5442C21.9849 12.2502 20.2299 11.5233 18.3999 11.5233ZM11.4999 29.9233C10.8899 29.9233 10.3048 30.1656 9.87351 30.597C9.44217 31.0283 9.19985 31.6133 9.19985 32.2233C9.19985 32.8333 9.44217 33.4183 9.87351 33.8497C10.3048 34.281 10.8899 34.5233 11.4999 34.5233H25.2999C25.9099 34.5233 26.4949 34.281 26.9262 33.8497C27.3576 33.4183 27.5999 32.8333 27.5999 32.2233C27.5999 31.6133 27.3576 31.0283 26.9262 30.597C26.4949 30.1656 25.9099 29.9233 25.2999 29.9233H11.4999Z" fill="white"/>
</g>
<defs>
<clipPath id="clip0_18_21">
<rect width="46" height="46" fill="white" transform="translate(-6.10352e-05 0.123291)"/>
</clipPath>
</defs>
</svg>
