<svg width="106" height="107" viewBox="0 0 106 107" fill="none" xmlns="http://www.w3.org/2000/svg">
<rect x="-6.10352e-05" y="0.123291" width="106" height="106" rx="24" fill="#3461FF"/>
<path d="M64.4999 49.8375V46.5518H41.4999V49.8375H49.7142V54.329L43.3597 65.4512L46.2117 67.0809L52.3099 56.4089H53.6899L59.7882 67.0809L62.6402 65.4512L56.2857 54.329V49.8375H64.4999Z" fill="white"/>
<path d="M52.9999 44.9091C54.8146 44.9091 56.2856 43.438 56.2856 41.6234C56.2856 39.8087 54.8146 38.3376 52.9999 38.3376C51.1853 38.3376 49.7142 39.8087 49.7142 41.6234C49.7142 43.438 51.1853 44.9091 52.9999 44.9091Z" fill="white"/>
<path d="M52.9999 76.1233C48.451 76.1233 44.0042 74.7744 40.2218 72.2471C36.4395 69.7198 33.4915 66.1277 31.7507 61.925C30.0099 57.7223 29.5544 53.0978 30.4419 48.6362C31.3293 44.1747 33.5199 40.0765 36.7365 36.8598C39.9531 33.6432 44.0513 31.4527 48.5129 30.5652C52.9744 29.6778 57.599 30.1333 61.8017 31.8741C66.0044 33.6149 69.5965 36.5629 72.1237 40.3452C74.651 44.1275 75.9999 48.5743 75.9999 53.1233C75.993 59.2211 73.5675 65.0672 69.2557 69.3791C64.9439 73.6909 59.0978 76.1163 52.9999 76.1233ZM52.9999 33.409C49.1008 33.409 45.2893 34.5652 42.0473 36.7315C38.8053 38.8977 36.2785 41.9767 34.7863 45.579C33.2942 49.1813 32.9038 53.1452 33.6645 56.9694C34.4251 60.7936 36.3028 64.3063 39.0598 67.0634C41.8169 69.8205 45.3297 71.6981 49.1539 72.4588C52.9781 73.2195 56.942 72.829 60.5443 71.3369C64.1466 69.8448 67.2255 67.318 69.3918 64.076C71.558 60.834 72.7142 57.0224 72.7142 53.1233C72.7081 47.8966 70.6292 42.8857 66.9333 39.1899C63.2375 35.4941 58.2266 33.4151 52.9999 33.409Z" fill="white"/>
</svg>
