<svg width="106" height="107" viewBox="0 0 106 107" fill="none" xmlns="http://www.w3.org/2000/svg">
<rect x="-6.10352e-05" y="0.123291" width="106" height="106" rx="24" fill="#3461FF"/>
<path d="M52.9999 70.647C62.6781 70.647 70.5237 62.8013 70.5237 53.1232C70.5237 43.445 62.6781 35.5994 52.9999 35.5994C43.3218 35.5994 35.4761 43.445 35.4761 53.1232C35.4761 62.8013 43.3218 70.647 52.9999 70.647Z" stroke="white" stroke-width="4" stroke-linecap="round" stroke-linejoin="round"/>
<path d="M52.9999 61.8851C57.839 61.8851 61.7618 57.9623 61.7618 53.1232C61.7618 48.2842 57.839 44.3613 52.9999 44.3613C48.1609 44.3613 44.238 48.2842 44.238 53.1232C44.238 57.9623 48.1609 61.8851 52.9999 61.8851Z" stroke="white" stroke-width="4" stroke-linecap="round" stroke-linejoin="round"/>
<path d="M59.5714 46.5516L65.0476 41.0754M59.5714 59.6945L65.0476 65.1707M46.4285 59.6945L40.9523 65.1707M46.4285 46.5516L40.9523 41.0754" stroke="white" stroke-width="4" stroke-linecap="round" stroke-linejoin="round"/>
</svg>
