<svg width="106" height="107" viewBox="0 0 106 107" fill="none" xmlns="http://www.w3.org/2000/svg">
<rect x="-6.10352e-05" y="0.123291" width="106" height="106" rx="24" fill="#3461FF"/>
<g clip-path="url(#clip0_70_603)">
<path fill-rule="evenodd" clip-rule="evenodd" d="M36.8998 73.7233H69.0999C71.6897 73.7233 73.5297 72.594 74.6475 71.0415C75.6779 69.6086 75.9999 67.9595 75.9999 66.8233V53.0233C75.9999 52.4133 75.7576 51.8283 75.3263 51.3969C74.8949 50.9656 74.3099 50.7233 73.6999 50.7233H66.7999V39.2233C66.7999 37.3933 66.073 35.6382 64.7789 34.3442C63.4849 33.0502 61.7299 32.3232 59.8999 32.3232H36.8998C35.0698 32.3232 33.3148 33.0502 32.0208 34.3442C30.7268 35.6382 29.9998 37.3933 29.9998 39.2233V66.8233C29.9998 67.9572 30.3218 69.6086 31.3522 71.0415C32.47 72.5963 34.31 73.7233 36.8998 73.7233ZM69.0999 55.3233C69.7099 55.3233 70.2949 55.5656 70.7263 55.997C71.1576 56.4283 71.3999 57.0133 71.3999 57.6233V66.8233C71.3999 67.4333 71.1576 68.0183 70.7263 68.4497C70.2949 68.881 69.7099 69.1233 69.0999 69.1233C68.4899 69.1233 67.9049 68.881 67.4736 68.4497C67.0422 68.0183 66.7999 67.4333 66.7999 66.8233V57.6233C66.7999 57.0133 67.0422 56.4283 67.4736 55.997C67.9049 55.5656 68.4899 55.3233 69.0999 55.3233ZM46.0999 48.4233C46.0999 47.8133 46.3422 47.2283 46.7735 46.7969C47.2049 46.3656 47.7899 46.1233 48.3999 46.1233C49.0099 46.1233 49.5949 46.3656 50.0262 46.7969C50.4576 47.2283 50.6999 47.8133 50.6999 48.4233C50.6999 49.0333 50.4576 49.6183 50.0262 50.0496C49.5949 50.481 49.0099 50.7233 48.3999 50.7233C47.7899 50.7233 47.2049 50.481 46.7735 50.0496C46.3422 49.6183 46.0999 49.0333 46.0999 48.4233ZM48.3999 41.5233C46.5699 41.5233 44.8148 42.2502 43.5208 43.5442C42.2268 44.8382 41.4999 46.5933 41.4999 48.4233C41.4999 50.2533 42.2268 52.0083 43.5208 53.3023C44.8148 54.5963 46.5699 55.3233 48.3999 55.3233C50.2299 55.3233 51.9849 54.5963 53.2789 53.3023C54.5729 52.0083 55.2999 50.2533 55.2999 48.4233C55.2999 46.5933 54.5729 44.8382 53.2789 43.5442C51.9849 42.2502 50.2299 41.5233 48.3999 41.5233ZM41.4999 59.9233C40.8899 59.9233 40.3048 60.1656 39.8735 60.597C39.4422 61.0283 39.1999 61.6133 39.1999 62.2233C39.1999 62.8333 39.4422 63.4183 39.8735 63.8497C40.3048 64.281 40.8899 64.5233 41.4999 64.5233H55.2999C55.9099 64.5233 56.4949 64.281 56.9262 63.8497C57.3576 63.4183 57.5999 62.8333 57.5999 62.2233C57.5999 61.6133 57.3576 61.0283 56.9262 60.597C56.4949 60.1656 55.9099 59.9233 55.2999 59.9233H41.4999Z" fill="white"/>
</g>
<defs>
<clipPath id="clip0_70_603">
<rect width="46" height="46" fill="white" transform="translate(29.9999 30.1233)"/>
</clipPath>
</defs>
</svg>
