<svg width="106" height="107" viewBox="0 0 106 107" fill="none" xmlns="http://www.w3.org/2000/svg">
<rect x="-6.10352e-05" y="0.123291" width="106" height="106" rx="24" fill="#3461FF"/>
<path d="M64.4999 34.4357C64.5004 34.151 64.4164 33.8726 64.2585 33.6357C64.1006 33.3988 63.8759 33.2142 63.6129 33.1052C63.3499 32.9962 63.0605 32.9677 62.7813 33.0234C62.5021 33.079 62.2457 33.2164 62.0447 33.4179L56.2947 39.1679C56.1613 39.3017 56.0555 39.4604 55.9835 39.635C55.9115 39.8097 55.8746 39.9968 55.8749 40.1857V48.2156L53.7446 50.3431C53.3184 50.23 52.8719 50.2162 52.4396 50.3028C52.0073 50.3895 51.6006 50.5742 51.2509 50.8428C50.9012 51.1114 50.6179 51.4566 50.4227 51.852C50.2274 52.2474 50.1256 52.6823 50.1249 53.1232C50.1251 53.5323 50.2126 53.9367 50.3816 54.3093C50.5506 54.682 50.7972 55.0142 51.1049 55.2839C51.4126 55.5536 51.7743 55.7545 52.1659 55.8732C52.5574 55.9919 52.9698 56.0257 53.3754 55.9722C53.7811 55.9188 54.1707 55.7794 54.5181 55.5633C54.8656 55.3473 55.1629 55.0595 55.3903 54.7194C55.6176 54.3792 55.7697 53.9944 55.8364 53.5907C55.9032 53.1871 55.883 52.7738 55.7772 52.3786L57.9076 50.2482H65.9374C66.1263 50.2485 66.3135 50.2116 66.4881 50.1396C66.6627 50.0676 66.8214 49.9618 66.9552 49.8284L72.7052 44.0784C72.9067 43.8774 73.0441 43.621 73.0998 43.3418C73.1554 43.0626 73.127 42.7732 73.0179 42.5102C72.9089 42.2472 72.7243 42.0225 72.4874 41.8646C72.2505 41.7067 71.9721 41.6227 71.6874 41.6232H64.4999V34.4357ZM70.0889 50.7599C70.5837 54.3398 69.9416 57.9846 68.2533 61.1799C66.565 64.3752 63.9158 66.9595 60.6797 68.5682C57.4436 70.1768 53.784 70.7284 50.2175 70.1452C46.651 69.562 43.3577 67.8734 40.8026 65.3177C38.2474 62.7621 36.5594 59.4685 35.9769 55.9019C35.3944 52.3352 35.9467 48.6757 37.556 45.4399C39.1652 42.2041 41.7501 39.5555 44.9457 37.8678C48.1414 36.1802 51.7863 35.5388 55.3661 36.0342L54.2649 37.1353C53.864 37.5357 53.546 38.0112 53.3289 38.5346C53.1118 39.058 53.0001 39.6191 52.9999 40.1857C50.4411 40.1857 47.9398 40.9444 45.8122 42.366C43.6847 43.7876 42.0265 45.8082 41.0472 48.1722C40.068 50.5362 39.8118 53.1375 40.311 55.6472C40.8102 58.1568 42.0424 60.462 43.8517 62.2714C45.6611 64.0807 47.9663 65.3129 50.476 65.8121C52.9856 66.3113 55.5869 66.0551 57.9509 65.0759C60.3149 64.0967 62.3355 62.4384 63.7571 60.3109C65.1787 58.1833 65.9374 55.682 65.9374 53.1232C67.0808 53.1222 68.177 52.6672 68.9849 51.8582L70.0889 50.7599ZM52.9999 43.0607C51.0098 43.0607 49.0643 43.6508 47.4095 44.7565C45.7547 45.8622 44.465 47.4337 43.7034 49.2724C42.9418 51.1111 42.7425 53.1343 43.1308 55.0863C43.5191 57.0382 44.4774 58.8312 45.8847 60.2384C47.2919 61.6457 49.0849 62.6041 51.0368 62.9923C52.9888 63.3806 55.012 63.1813 56.8507 62.4197C58.6894 61.6581 60.2609 60.3684 61.3666 58.7136C62.4723 57.0588 63.0624 55.1134 63.0624 53.1232H59.0978L58.7384 53.4826C58.6693 54.587 58.283 55.6481 57.6257 56.5385C56.9684 57.4288 56.0682 58.1106 55.0331 58.5019C53.9979 58.8933 52.8718 58.9776 51.7899 58.7448C50.708 58.5119 49.7163 57.9718 48.9338 57.1893C48.1513 56.4068 47.6112 55.4151 47.3784 54.3332C47.1455 53.2513 47.2299 52.1252 47.6212 51.0901C48.0126 50.0549 48.6943 49.1547 49.5846 48.4974C50.475 47.8402 51.5361 47.4538 52.6406 47.3847L52.9999 47.0253V43.0607Z" fill="white"/>
</svg>
