<svg width="59" height="58" viewBox="0 0 59 58" fill="none" xmlns="http://www.w3.org/2000/svg">
<circle cx="29.2732" cy="29.0001" r="29" fill="#EBEDF9"/>
<path fill-rule="evenodd" clip-rule="evenodd" d="M37.6319 29.0001C37.6319 29.2772 37.5218 29.543 37.3259 29.7389C37.13 29.9349 36.8642 30.045 36.5871 30.045H24.4814L28.968 34.5295C29.0652 34.6266 29.1422 34.7419 29.1948 34.8689C29.2474 34.9958 29.2744 35.1318 29.2744 35.2692C29.2744 35.4066 29.2474 35.5426 29.1948 35.6696C29.1422 35.7965 29.0652 35.9118 28.968 36.009C28.8709 36.1061 28.7555 36.1832 28.6286 36.2358C28.5017 36.2883 28.3656 36.3154 28.2283 36.3154C28.0909 36.3154 27.9548 36.2883 27.8279 36.2358C27.701 36.1832 27.5856 36.1061 27.4885 36.009L21.2194 29.7399C21.1221 29.6428 21.0449 29.5275 20.9922 29.4006C20.9395 29.2736 20.9124 29.1375 20.9124 29.0001C20.9124 28.8627 20.9395 28.7266 20.9922 28.5996C21.0449 28.4727 21.1221 28.3574 21.2194 28.2603L27.4885 21.9912C27.6847 21.795 27.9508 21.6848 28.2283 21.6848C28.5057 21.6848 28.7718 21.795 28.968 21.9912C29.1642 22.1874 29.2744 22.4535 29.2744 22.731C29.2744 23.0085 29.1642 23.2745 28.968 23.4707L24.4814 27.9553H36.5871C36.8642 27.9553 37.13 28.0653 37.3259 28.2613C37.5218 28.4572 37.6319 28.723 37.6319 29.0001Z" fill="black" fill-opacity="0.3"/>
</svg>
