<svg width="1440" height="557" viewBox="0 0 1440 557" fill="none" xmlns="http://www.w3.org/2000/svg">
<path d="M683.754 1415.12C679.355 1414.9 674.922 1414.68 670.455 1414.46L670.438 1414.96L657.135 1414.3L657.152 1413.8C652.747 1413.58 648.312 1413.36 643.85 1413.14L643.833 1413.64L630.557 1412.99L630.574 1412.49C626.17 1412.27 621.741 1412.05 617.29 1411.83L617.273 1412.33L603.98 1411.68L603.998 1411.18C599.584 1410.96 595.15 1410.74 590.698 1410.52L590.681 1411.02L577.377 1410.37L577.394 1409.87C572.983 1409.65 568.556 1409.43 564.115 1409.21L564.097 1409.71L550.81 1409.06L550.828 1408.56C546.409 1408.34 541.977 1408.12 537.534 1407.9L537.517 1408.4L524.219 1407.75L524.236 1407.25C519.814 1407.03 515.383 1406.81 510.944 1406.6L510.927 1407.09L497.639 1406.44L497.657 1405.94C493.232 1405.72 488.801 1405.51 484.365 1405.29L484.347 1405.79L471.053 1405.14L471.07 1404.64C466.642 1404.42 462.211 1404.2 457.777 1403.98L457.76 1404.48L444.47 1403.83L444.487 1403.33C440.056 1403.11 435.625 1402.89 431.194 1402.68L431.177 1403.18L417.885 1402.52L417.902 1402.02C413.47 1401.81 409.04 1401.59 404.614 1401.37L404.596 1401.87L391.302 1401.22L391.319 1400.72C386.881 1400.5 382.449 1400.29 378.024 1400.07L378.007 1400.57L364.715 1399.92L364.732 1399.42C360.295 1399.2 355.866 1398.98 351.447 1398.77L351.43 1399.27L338.136 1398.61L338.153 1398.11C333.708 1397.9 329.275 1397.68 324.854 1397.46L324.837 1397.96L311.544 1397.31L311.561 1396.81C307.117 1396.59 302.687 1396.38 298.274 1396.16L298.257 1396.66L284.979 1396.01L284.996 1395.51C280.542 1395.29 276.106 1395.07 271.691 1394.86L271.674 1395.36L258.374 1394.71L258.391 1394.21C253.936 1393.99 249.504 1393.77 245.097 1393.56L245.08 1394.06L231.794 1393.41L231.811 1392.91C227.357 1392.69 222.93 1392.47 218.533 1392.26L218.516 1392.76L205.226 1392.11L205.243 1391.61C200.774 1391.39 196.338 1391.17 191.937 1390.96L191.92 1391.46L178.619 1390.81L178.636 1390.31C174.163 1390.09 169.73 1389.87 165.34 1389.66L165.322 1390.16L158.716 1389.83C156.546 1389.73 154.385 1389.59 152.232 1389.42L152.264 1388.92C147.94 1388.58 143.652 1388.11 139.405 1387.52L139.343 1388.02C135.037 1387.42 130.772 1386.69 126.552 1385.84L126.643 1385.35C122.386 1384.5 118.175 1383.52 114.014 1382.42L113.893 1382.9C109.685 1381.79 105.528 1380.55 101.426 1379.19L101.576 1378.72C97.4532 1377.36 93.3859 1375.87 89.3781 1374.27L89.199 1374.74C85.1568 1373.13 81.1749 1371.4 77.2573 1369.55L77.4645 1369.1C73.5348 1367.25 69.67 1365.29 65.8744 1363.21L65.6401 1363.65C61.8184 1361.57 58.0666 1359.37 54.3889 1357.06L54.6496 1356.64C50.9689 1354.33 47.3625 1351.92 43.8347 1349.4L43.5487 1349.81C40.0042 1347.28 36.5388 1344.65 33.1568 1341.92L33.4669 1341.53C30.0868 1338.8 26.7902 1335.98 23.5814 1333.06L23.2483 1333.42C20.0287 1330.49 16.8974 1327.47 13.8586 1324.36L14.2135 1324.01C11.1809 1320.9 8.24073 1317.7 5.39723 1314.42L5.02187 1314.75C2.17267 1311.46 -0.579656 1308.09 -3.23079 1304.63L-2.83627 1304.33C-5.4784 1300.89 -8.01979 1297.37 -10.4562 1293.77L-10.8684 1294.05C-13.306 1290.45 -15.6387 1286.78 -17.8622 1283.04L-17.4337 1282.79C-19.6466 1279.06 -21.7512 1275.27 -23.7431 1271.4L-24.1864 1271.63C-26.1767 1267.77 -28.0547 1263.85 -29.8164 1259.87L-29.36 1259.67C-31.1097 1255.72 -32.7444 1251.7 -34.2598 1247.63L-34.7277 1247.8C-36.2385 1243.74 -37.631 1239.63 -38.9013 1235.47L-38.4236 1235.33C-39.6831 1231.2 -40.8221 1227.02 -41.8366 1222.8L-42.3223 1222.91C-43.3318 1218.71 -44.2184 1214.47 -44.978 1210.18L-44.486 1210.1C-45.2373 1205.86 -45.8642 1201.58 -46.3628 1197.27L-46.8592 1197.32C-47.3535 1193.04 -47.7221 1188.73 -47.9613 1184.39L-47.4624 1184.37C-47.6984 1180.09 -47.8082 1175.78 -47.7883 1171.44L-48.288 1171.43C-48.2781 1169.27 -48.2362 1167.11 -48.1617 1164.94L-47.9393 1158.45L-47.4399 1158.47L-46.9952 1145.5L-47.4946 1145.48L-47.0498 1132.51L-46.5504 1132.53L-46.1056 1119.56L-46.605 1119.53L-46.1602 1106.56L-45.6608 1106.59L-45.2161 1093.62L-45.7155 1093.59L-45.2707 1080.62L-44.7713 1080.64L-44.3265 1067.67L-44.8259 1067.65L-44.3812 1054.68L-43.8818 1054.7L-43.437 1041.73L-43.9364 1041.7L-43.4916 1028.73L-42.9922 1028.76L-42.5474 1015.78L-43.0468 1015.76L-42.6021 1002.79L-42.1027 1002.81L-41.6579 989.842L-42.1573 989.817L-41.7125 976.845L-41.2131 976.87L-40.7684 963.898L-41.2678 963.874L-40.823 950.902L-40.3236 950.926L-39.8788 937.955L-40.3782 937.93L-39.9334 924.959L-39.434 924.983L-38.9893 912.011L-39.4887 911.987L-39.0439 899.015L-38.5445 899.04L-38.0997 886.068L-38.5991 886.043L-38.1544 873.072L-37.655 873.096L-37.2102 860.125L-37.7096 860.1L-37.2648 847.128L-36.7654 847.153L-36.3207 834.181L-36.8201 834.157L-36.3753 821.185L-35.8759 821.21L-35.4311 808.238L-35.9305 808.213L-35.4857 795.242L-34.9863 795.266L-34.5416 782.294L-35.041 782.27L-34.5962 769.298L-34.0968 769.323L-33.652 756.351L-34.1514 756.327L-33.7067 743.355L-33.2073 743.379L-32.7625 730.408L-33.2619 730.383L-32.8171 717.412L-32.3177 717.436L-31.8729 704.464L-32.3723 704.44L-31.9276 691.468L-31.4282 691.493L-30.9834 678.521L-31.4828 678.496L-31.038 665.525L-30.5386 665.549L-30.0939 652.578L-30.5933 652.553L-30.1485 639.581L-29.6491 639.606L-29.2043 626.634L-29.7037 626.61L-29.259 613.638L-28.7596 613.663L-28.3148 600.691L-28.8142 600.666L-28.3694 587.695L-27.87 587.719L-27.4252 574.747L-27.9246 574.723L-27.4799 561.751L-26.9805 561.776L-26.5357 548.804L-27.0351 548.78L-26.5903 535.808L-26.0909 535.832L-25.6462 522.861L-26.1456 522.836L-25.7008 509.865L-25.2014 509.889L-24.7566 496.917L-25.256 496.893L-24.8112 483.921L-24.3118 483.946L-23.8671 470.974L-24.3665 470.949L-23.9217 457.978L-23.4223 458.002L-22.9775 445.031L-23.4769 445.006L-23.0322 432.034L-22.5328 432.059L-22.088 419.087L-22.5874 419.063L-22.1426 406.091L-21.6432 406.116L-21.1984 393.144L-21.6978 393.119L-21.2531 380.148L-20.7537 380.172L-20.3089 367.2L-20.8083 367.176L-20.3635 354.204L-19.8641 354.229L-19.4194 341.257L-19.9188 341.233L-19.474 328.261L-18.9746 328.285L-18.5298 315.314L-19.0292 315.289L-18.5845 302.318L-18.0851 302.342L-17.6403 289.37L-18.1397 289.346L-17.6949 276.374L-17.1955 276.399L-16.7507 263.427L-17.2501 263.403L-16.8054 250.431L-16.306 250.455L-15.8612 237.484L-16.3606 237.459L-15.9158 224.487L-15.4164 224.512L-14.9717 211.54L-15.4711 211.516L-15.2486 205.029C-15.1742 202.858 -15.0678 200.696 -14.9298 198.543L-14.4311 198.583C-14.1539 194.258 -13.7491 189.971 -13.2205 185.727L-13.7163 185.658C-13.1805 181.356 -12.5176 177.096 -11.7319 172.883L-11.2406 172.982C-10.4479 168.732 -9.52982 164.53 -8.49036 160.38L-8.97516 160.251C-7.92413 156.055 -6.74933 151.911 -5.45498 147.823L-4.97845 147.981C-3.6777 143.873 -2.25593 139.822 -0.717431 135.833L-1.18393 135.647C0.367738 131.623 2.03786 127.662 3.82206 123.766L4.27681 123.98C6.06651 120.073 7.97126 116.232 9.98663 112.462L9.5453 112.221C11.5744 108.425 13.7154 104.701 15.9638 101.052L16.3901 101.319C18.6403 97.6676 20.9983 94.092 23.4595 90.5964L23.0497 90.3042C25.5227 86.792 28.0996 83.3606 30.7759 80.0141L31.1678 80.3303C33.8427 76.9856 36.6171 73.726 39.4865 70.5556L39.114 70.2167C41.9931 67.0356 44.9675 63.9442 48.0326 60.9468L48.3844 61.3072C51.4433 58.3158 54.5928 55.4182 57.8283 52.6187L57.4984 52.2381C60.7403 49.4329 64.0684 46.7259 67.4779 44.1213L67.7847 44.5207C71.1827 41.925 74.6618 39.4313 78.2174 37.0438L77.9349 36.627C81.4923 34.2383 85.1262 31.9557 88.8318 29.7834L89.089 30.2161C92.7771 28.0541 96.5365 26.0016 100.363 24.0629L100.132 23.6159C103.955 21.6788 107.844 19.8549 111.796 18.1485L111.999 18.6084C115.924 16.9135 119.91 15.3348 123.953 13.8763L123.777 13.4053C127.807 11.9513 131.894 10.6164 136.033 9.40474L136.179 9.8851C140.283 8.68372 144.438 7.60376 148.64 6.64915L148.522 6.16117C152.703 5.21126 156.931 4.38519 161.2 3.68683L161.288 4.18062C165.51 3.48995 169.774 2.92449 174.075 2.488L174.017 1.99024C178.281 1.55756 182.581 1.2513 186.913 1.07513L186.941 1.57502C191.214 1.40125 195.519 1.35432 199.852 1.43775L199.855 0.937535C202.011 0.979058 204.175 1.0528 206.344 1.15918L212.821 1.47674L212.804 1.97644L225.758 2.61155L225.775 2.11185L238.729 2.74696L238.712 3.24666L251.665 3.88177L251.682 3.38207L264.636 4.01718L264.619 4.51689L277.573 5.152L277.59 4.65229L290.543 5.2874L290.526 5.78711L303.48 6.42222L303.497 5.92251L316.451 6.55762L316.434 7.05733L329.387 7.69244L329.405 7.19273L342.358 7.82784L342.341 8.32755L355.295 8.96266L355.312 8.46296L368.266 9.09807L368.249 9.59777L381.202 10.2329L381.219 9.73318L394.173 10.3683L394.156 10.868L407.11 11.5031L407.127 11.0034L420.08 11.6385L420.063 12.1382L433.017 12.7733L433.034 12.2736L445.988 12.9087L445.971 13.4084L458.924 14.0435L458.941 13.5438L471.895 14.179L471.878 14.6787L484.832 15.3138L484.849 14.8141L497.803 15.4492L497.785 15.9489L510.739 16.584L510.756 16.0843L523.71 16.7194L523.693 17.2191L536.647 17.8542L536.664 17.3545L549.617 17.9896L549.6 18.4893L562.554 19.1244L562.571 18.6247L575.525 19.2598L575.508 19.7595L588.461 20.3947L588.479 19.895L601.432 20.5301L601.415 21.0298L614.369 21.6649L614.386 21.1652L627.34 21.8003L627.323 22.3L640.276 22.9351L640.293 22.4354L653.247 23.0705L653.23 23.5702L666.184 24.2053L666.201 23.7056L679.155 24.3407L679.137 24.8404L692.091 25.4756L692.108 24.9758L705.062 25.611L705.045 26.1107L717.999 26.7458L718.016 26.2461L730.969 26.8812L730.952 27.3809L743.906 28.016L743.923 27.5163L756.877 28.1514L756.86 28.6511L769.813 29.2862L769.83 28.7865L782.784 29.4216L782.767 29.9213L795.721 30.5564L795.738 30.0567L808.691 30.6918L808.674 31.1915L821.628 31.8267L821.645 31.3269L834.599 31.9621L834.582 32.4618L847.535 33.0969L847.552 32.5972L860.506 33.2323L860.489 33.732L873.443 34.3671L873.46 33.8674L886.413 34.5025L886.396 35.0022L899.35 35.6373L899.367 35.1376L912.321 35.7727L912.304 36.2724L925.257 36.9075L925.275 36.4078L938.228 37.0429L938.211 37.5426L951.165 38.1778L951.182 37.678L964.136 38.3132L964.118 38.8129L977.072 39.448L977.089 38.9483L990.043 39.5834L990.026 40.0831L1002.98 40.7182L1003 40.2185L1015.95 40.8536L1015.93 41.3533L1028.89 41.9884L1028.9 41.4887L1041.86 42.1238L1041.84 42.6235L1054.79 43.2586L1054.81 42.7589L1067.77 43.394L1067.75 43.8938L1080.7 44.5289L1080.72 44.0292L1093.67 44.6643L1093.66 45.164L1106.61 45.7991L1106.63 45.2994L1119.58 45.9345L1119.56 46.4342L1132.52 47.0693L1132.53 46.5696L1145.49 47.2047L1145.47 47.7044L1158.42 48.3395L1158.44 47.8398L1171.39 48.4749L1171.38 48.9746L1184.33 49.6097L1184.35 49.11L1197.3 49.7451L1197.28 50.2448L1210.24 50.88L1210.26 50.3803L1223.21 51.0154L1223.19 51.5151L1236.15 52.1502L1236.16 51.6505L1249.12 52.2856L1249.1 52.7853L1262.05 53.4204L1262.07 52.9207L1268.55 53.2383C1270.72 53.3447 1272.88 53.483 1275.03 53.6527L1275 54.1514C1279.32 54.4925 1283.61 54.9607 1287.86 55.5522L1287.92 55.0567C1292.23 55.6564 1296.49 56.3826 1300.71 57.2312L1300.62 57.7216C1304.87 58.5777 1309.09 59.5587 1313.25 60.6604L1313.37 60.1768C1317.57 61.2908 1321.73 62.5279 1325.83 63.8839L1325.68 64.3588C1329.81 65.7215 1333.87 67.2046 1337.88 68.8036L1338.06 68.3393C1342.1 69.952 1346.08 71.6825 1350 73.5262L1349.79 73.9783C1353.72 75.8277 1357.59 77.7914 1361.38 79.8647L1361.62 79.4263C1365.44 81.5138 1369.19 83.7123 1372.87 86.0172L1372.61 86.4401C1376.29 88.7469 1379.89 91.1605 1383.42 93.6762L1383.71 93.2702C1387.25 95.7979 1390.72 98.4286 1394.1 101.158L1393.79 101.545C1397.17 104.273 1400.46 107.099 1403.67 110.018L1404.01 109.65C1407.23 112.58 1410.36 115.604 1413.4 118.717L1413.04 119.064C1416.08 122.171 1419.02 125.367 1421.86 128.648L1422.23 128.323C1425.08 131.61 1427.84 134.983 1430.49 138.435L1430.09 138.736C1432.74 142.177 1435.28 145.697 1437.72 149.292L1438.13 149.016C1440.57 152.613 1442.9 156.285 1445.12 160.027L1444.7 160.279C1446.91 164.003 1449.01 167.798 1451.01 171.658L1451.45 171.433C1453.44 175.289 1455.32 179.211 1457.08 183.193L1456.63 183.39C1458.38 187.344 1460.01 191.359 1461.53 195.428L1462 195.259C1463.51 199.316 1464.9 203.428 1466.17 207.59L1465.69 207.73C1466.95 211.857 1468.09 216.033 1469.11 220.254L1469.6 220.144C1470.61 224.344 1471.49 228.589 1472.25 232.875L1471.76 232.955C1472.51 237.194 1473.14 241.471 1473.64 245.785L1474.14 245.734C1474.63 250.01 1475 254.32 1475.24 258.661L1474.74 258.681C1474.98 262.963 1475.09 267.274 1475.07 271.612L1475.57 271.621C1475.56 273.78 1475.51 275.945 1475.44 278.116L1475.22 284.603L1474.72 284.579L1474.27 297.552L1474.77 297.577L1474.33 310.55L1473.83 310.526L1473.38 323.499L1473.88 323.524L1473.44 336.497L1472.94 336.473L1472.49 349.446L1472.99 349.471L1472.55 362.444L1472.05 362.42L1471.6 375.393L1472.1 375.418L1471.66 388.391L1471.16 388.367L1470.71 401.34L1471.21 401.365L1470.77 414.338L1470.27 414.314L1469.82 427.287L1470.32 427.311L1469.88 440.285L1469.38 440.26L1468.93 453.234L1469.43 453.258L1468.99 466.232L1468.49 466.207L1468.05 479.181L1468.54 479.205L1468.1 492.179L1467.6 492.154L1467.16 505.128L1467.65 505.152L1467.21 518.126L1466.71 518.101L1466.27 531.075L1466.77 531.099L1466.32 544.073L1465.82 544.048L1465.38 557.022L1465.88 557.046L1465.43 570.02L1464.93 569.995L1464.49 582.969L1464.99 582.993L1464.54 595.967L1464.04 595.942L1463.6 608.916L1464.1 608.94L1463.65 621.914L1463.15 621.889L1462.71 634.863L1463.21 634.887L1462.76 647.861L1462.26 647.836L1461.82 660.81L1462.32 660.834L1461.87 673.808L1461.37 673.783L1460.93 686.757L1461.43 686.781L1460.98 699.755L1460.48 699.73L1460.04 712.704L1460.54 712.728L1460.09 725.702L1459.59 725.677L1459.15 738.651L1459.65 738.675L1459.2 751.649L1458.7 751.624L1458.26 764.598L1458.76 764.622L1458.31 777.596L1457.81 777.571L1457.37 790.545L1457.87 790.569L1457.42 803.543L1456.92 803.518L1456.48 816.491L1456.98 816.516L1456.53 829.489L1456.03 829.465L1455.59 842.438L1456.09 842.463L1455.64 855.436L1455.15 855.412L1454.7 868.385L1455.2 868.41L1454.75 881.383L1454.26 881.359L1453.81 894.332L1454.31 894.357L1453.87 907.33L1453.37 907.306L1452.92 920.279L1453.42 920.304L1452.98 933.277L1452.48 933.253L1452.03 946.226L1452.53 946.251L1452.09 959.224L1451.59 959.199L1451.14 972.173L1451.64 972.197L1451.2 985.171L1450.7 985.146L1450.25 998.12L1450.75 998.144L1450.31 1011.12L1449.81 1011.09L1449.36 1024.07L1449.86 1024.09L1449.42 1037.06L1448.92 1037.04L1448.47 1050.01L1448.97 1050.04L1448.53 1063.01L1448.03 1062.99L1447.58 1075.96L1448.08 1075.99L1447.64 1088.96L1447.14 1088.93L1446.69 1101.91L1447.19 1101.93L1446.75 1114.91L1446.25 1114.88L1445.8 1127.85L1446.3 1127.88L1445.86 1140.85L1445.36 1140.83L1444.91 1153.8L1445.41 1153.83L1444.97 1166.8L1444.47 1166.77L1444.02 1179.75L1444.52 1179.77L1444.08 1192.75L1443.58 1192.72L1443.13 1205.7L1443.63 1205.72L1443.19 1218.69L1442.69 1218.67L1442.25 1231.64L1442.74 1231.67L1442.52 1238.15C1442.45 1240.32 1442.34 1242.49 1442.2 1244.64L1441.7 1244.6C1441.43 1248.92 1441.02 1253.21 1440.5 1257.45L1440.99 1257.52C1440.46 1261.82 1439.79 1266.08 1439.01 1270.29L1438.52 1270.19C1437.73 1274.44 1436.81 1278.64 1435.77 1282.79L1436.26 1282.92C1435.21 1287.11 1434.03 1291.25 1432.74 1295.34L1432.26 1295.18C1430.97 1299.29 1429.55 1303.34 1428.01 1307.33L1428.48 1307.51C1426.93 1311.54 1425.26 1315.5 1423.48 1319.39L1423.02 1319.18C1421.23 1323.08 1419.33 1326.92 1417.32 1330.69L1417.76 1330.93C1415.73 1334.73 1413.59 1338.45 1411.35 1342.1L1410.92 1341.83C1408.67 1345.49 1406.32 1349.06 1403.86 1352.56L1404.27 1352.85C1401.8 1356.36 1399.23 1359.79 1396.55 1363.14L1396.16 1362.82C1393.49 1366.17 1390.72 1369.43 1387.85 1372.6L1388.22 1372.94C1385.35 1376.12 1382.37 1379.21 1379.31 1382.21L1378.96 1381.85C1375.9 1384.84 1372.76 1387.74 1369.52 1390.54L1369.85 1390.92C1366.61 1393.72 1363.29 1396.43 1359.88 1399.03L1359.57 1398.63C1356.18 1401.23 1352.7 1403.72 1349.15 1406.11L1349.43 1406.53C1345.88 1408.92 1342.24 1411.2 1338.54 1413.37L1338.28 1412.94C1334.6 1415.1 1330.84 1417.16 1327.02 1419.1L1327.25 1419.54C1323.43 1421.48 1319.54 1423.3 1315.59 1425.01L1315.39 1424.55C1311.46 1426.25 1307.48 1427.83 1303.44 1429.28L1303.61 1429.76C1299.59 1431.21 1295.5 1432.55 1291.36 1433.76L1291.22 1433.28C1287.12 1434.48 1282.96 1435.56 1278.76 1436.51L1278.88 1437C1274.7 1437.95 1270.48 1438.78 1266.21 1439.48L1266.12 1438.98C1261.9 1439.68 1257.64 1440.24 1253.34 1440.68L1253.4 1441.18C1249.13 1441.61 1244.84 1441.92 1240.51 1442.09L1240.48 1441.59C1236.21 1441.77 1231.9 1441.81 1227.57 1441.73L1227.57 1442.23C1225.41 1442.19 1223.25 1442.12 1221.08 1442.01L1214.49 1441.69L1214.5 1441.19C1210.12 1440.97 1205.69 1440.76 1201.23 1440.54L1201.21 1441.04L1187.93 1440.39L1187.95 1439.89C1183.56 1439.68 1179.13 1439.46 1174.67 1439.24L1174.65 1439.74L1161.38 1439.09L1161.4 1438.59C1157.01 1438.38 1152.59 1438.16 1148.14 1437.94L1148.13 1438.44L1134.86 1437.79L1134.88 1437.29C1130.48 1437.08 1126.06 1436.86 1121.61 1436.65L1121.59 1437.14L1108.32 1436.49L1108.33 1436C1103.92 1435.78 1099.5 1435.56 1095.05 1435.34L1095.03 1435.84L1081.78 1435.2L1081.79 1434.7C1077.39 1434.48 1072.97 1434.26 1068.53 1434.05L1068.51 1434.55L1055.24 1433.9L1055.26 1433.4C1050.84 1433.18 1046.42 1432.96 1041.98 1432.75L1041.96 1433.24L1028.69 1432.59L1028.71 1432.09C1024.3 1431.88 1019.88 1431.66 1015.45 1431.44L1015.43 1431.94L1002.16 1431.29L1002.18 1430.79C997.76 1430.58 993.335 1430.36 988.906 1430.14L988.888 1430.64L975.616 1429.99L975.633 1429.49C971.214 1429.28 966.792 1429.06 962.367 1428.84L962.35 1429.34L949.08 1428.69L949.097 1428.19C944.674 1427.97 940.25 1427.76 935.827 1427.54L935.81 1428.04L922.541 1427.39L922.558 1426.89C918.133 1426.67 913.709 1426.45 909.289 1426.23L909.271 1426.73L895.999 1426.08L896.017 1425.58C891.588 1425.36 887.164 1425.15 882.747 1424.93L882.73 1425.43L869.464 1424.78L869.482 1424.28C865.051 1424.06 860.627 1423.84 856.213 1423.63L856.196 1424.13L842.92 1423.47L842.937 1422.97C838.502 1422.75 834.078 1422.54 829.666 1422.32L829.648 1422.82L816.383 1422.17L816.401 1421.67C811.967 1421.45 807.548 1421.23 803.144 1421.01L803.127 1421.51L789.845 1420.86L789.863 1420.36C785.419 1420.14 780.993 1419.92 776.586 1419.7L776.569 1420.2L763.298 1419.55L763.315 1419.05C758.872 1418.83 754.451 1418.61 750.053 1418.39L750.036 1418.89L736.782 1418.24L736.799 1417.74C732.346 1417.52 727.919 1417.3 723.521 1417.08L723.504 1417.58L710.223 1416.93L710.24 1416.43C705.782 1416.21 701.356 1415.99 696.964 1415.77L696.947 1416.27L690.347 1415.94L683.736 1415.62L683.754 1415.12Z" stroke="white" stroke-dasharray="13 13"/>
</svg>
