<svg width="59" height="58" viewBox="0 0 59 58" fill="none" xmlns="http://www.w3.org/2000/svg">
<circle cx="29.9203" cy="29.0001" r="29" fill="#3461FF"/>
<path fill-rule="evenodd" clip-rule="evenodd" d="M21.5616 29.0001C21.5616 29.2772 21.6717 29.543 21.8676 29.7389C22.0636 29.9349 22.3294 30.045 22.6065 30.045H34.7121L30.2255 34.5295C30.1284 34.6266 30.0513 34.7419 29.9988 34.8689C29.9462 34.9958 29.9191 35.1318 29.9191 35.2692C29.9191 35.4066 29.9462 35.5427 29.9988 35.6696C30.0513 35.7965 30.1284 35.9118 30.2255 36.009C30.3227 36.1061 30.438 36.1832 30.5649 36.2358C30.6919 36.2883 30.8279 36.3154 30.9653 36.3154C31.1027 36.3154 31.2387 36.2883 31.3656 36.2358C31.4926 36.1832 31.6079 36.1061 31.705 36.009L37.9742 29.7399C38.0715 29.6428 38.1487 29.5275 38.2013 29.4006C38.254 29.2736 38.2811 29.1375 38.2811 29.0001C38.2811 28.8627 38.254 28.7266 38.2013 28.5996C38.1487 28.4727 38.0715 28.3574 37.9742 28.2603L31.705 21.9912C31.5089 21.795 31.2428 21.6848 30.9653 21.6848C30.6878 21.6848 30.4217 21.795 30.2255 21.9912C30.0293 22.1874 29.9191 22.4535 29.9191 22.731C29.9191 23.0085 30.0293 23.2745 30.2255 23.4707L34.7121 27.9553H22.6065C22.3294 27.9553 22.0636 28.0653 21.8676 28.2613C21.6717 28.4572 21.5616 28.723 21.5616 29.0001Z" fill="white"/>
</svg>
