<?xml version="1.0" encoding="UTF-8"?><svg id="a" xmlns="http://www.w3.org/2000/svg" viewBox="0 0 16 16"><defs><style>.b{fill:#fff;}.b,.c{stroke-width:0px;}.c{isolation:isolate;opacity:.1;}</style></defs><path class="c" d="M8,0C3.58,0,0,3.58,0,8c0,1.05.21,2.09.61,3.06.4.97.99,1.85,1.73,2.6.74.74,1.62,1.33,2.6,1.73.97.4,2.01.61,3.06.61,1.05,0,2.09-.21,3.06-.61.97-.4,1.85-.99,2.6-1.73.74-.74,1.33-1.62,1.73-2.6.4-.97.61-2.01.61-3.06,0-4.42-3.58-8-8-8Z"/><path class="b" d="M10.74,4.78l-2.14,2.86v.05l3.4-.46v1.55l-3.4-.41v.05l2.16,2.74-1.42.82-1.35-3.2h-.04l-1.46,3.22-1.28-.82,2.14-2.79v-.05l-3.33.43v-1.55l3.31.43v-.05l-2.12-2.79,1.37-.8,1.4,3.18h.04l1.37-3.2,1.35.78Z"/></svg>