<?xml version="1.0" encoding="UTF-8"?><svg id="a" xmlns="http://www.w3.org/2000/svg" viewBox="0 0 445.44 443.5"><defs><style>.g,.h,.i,.j,.k,.l{stroke:#382a32;}.g,.m,.n,.j{fill:none;}.g,.o{stroke-miterlimit:10;}.p,.q,.r,.s{stroke-width:0px;}.p,.o,.k{fill:#3461ff;}.h,.m,.i,.n,.j,.k,.l{stroke-linecap:round;stroke-linejoin:round;}.h,.q{fill:#fff;}.m{stroke:#707070;}.q{isolation:isolate;opacity:.7;}.i{fill:#d3d3d3;}.n{stroke:#fff;}.o{stroke:#3461ff;}.r{fill:#f0f0f0;}.s,.l{fill:#382a32;}</style></defs><g id="b"><path class="p" d="M139.61,35.42S63.85,74.02,26.05,133.52s-34.8,135.95,11.12,192.78c45.92,56.83,133.69,49.34,207.18,85.32,73.48,35.98,154.58,28.58,189.32-47.66s-17.64-104.72-26.65-192.93c-9.01-88.22-88.53-217.4-267.41-135.6Z"/><path class="q" d="M139.61,35.42S63.85,74.02,26.05,133.52s-34.8,135.95,11.12,192.78c45.92,56.83,133.69,49.34,207.18,85.32,73.48,35.98,154.58,28.58,189.32-47.66s-17.64-104.72-26.65-192.93c-9.01-88.22-88.53-217.4-267.41-135.6Z"/></g><g id="c"><path class="r" d="M95.93,341.98c3.05-.99,8.32-5.89,8.32-5.89.05-.05-4.28-2.49-4.57-2.61-3.37-1.42-10.72-2.18-13.39.93-1.92,2.24-1.19,5.51,1.13,7.12,2.37,1.65,5.92,1.3,8.51.45Z"/><path class="r" d="M151.33,294.84c.07-.01-2.2-4.44-2.37-4.7-2.03-3.04-7.74-7.73-11.68-6.61-2.84.81-4.03,3.93-2.99,6.57,1.07,2.69,4.22,4.35,6.85,5.08,3.09.85,10.19-.33,10.19-.33Z"/><path class="r" d="M111.62,355.89c2.57-1.69,6.13-7.35,6.41-7.8,3.14,2.01,6.53,3.82,10.06,5.46,2.02.94,4.08,1.83,6.16,2.69-1.01-.25-1.91-.47-2.04-.49-3.63-.48-10.91.73-12.67,4.43-1.26,2.67.3,5.63,2.97,6.57,2.73.97,6.05-.31,8.33-1.81,2.32-1.52,5.45-6.28,6.26-7.55.8.32,1.6.65,2.4.97,3.85,1.53,7.69,3.04,11.42,4.64,1.31.56,2.59,1.16,3.86,1.76-.9-.22-1.65-.4-1.77-.42-3.63-.48-10.91.73-12.67,4.43-1.26,2.67.3,5.63,2.97,6.57,2.72.97,6.05-.31,8.33-1.81,2.21-1.45,5.14-5.82,6.11-7.33,1.29.65,2.58,1.3,3.8,1.99.82.49,1.65.9,2.44,1.44.8.52,1.59,1.03,2.38,1.53,1.48,1.03,3.01,2.08,4.42,3.12.99.72,1.92,1.42,2.86,2.12-1.3-.58-3.87-1.65-4.1-1.71-3.51-1.02-10.9-.93-13.19,2.46-1.65,2.44-.55,5.61,1.94,6.95,2.55,1.37,6.03.61,8.51-.53,2.73-1.25,6.96-6.09,7.48-6.69,1.55,1.17,3.05,2.32,4.44,3.43,4.06,3.21,7.44,6.1,10.01,8.36l2.05-1.82c-2.68-2.27-6.26-5.2-10.57-8.46-1.57-1.19-3.27-2.44-5.03-3.7.23-.46,1.53-3.09,2.44-5.69,3.07.3,8.86-1.28,9.6-1.49.65,1.83,1.26,3.61,1.81,5.31,1.58,4.83,2.79,9.03,3.68,12.31l2.23-1.99c-.93-3.09-2.12-6.85-3.62-11.1-.65-1.86-1.38-3.84-2.15-5.86.68-.39,6.25-3.62,8-6.07,1.59-2.22,3-5.49,2.14-8.25-.84-2.7-3.74-4.39-6.45-3.23-3.77,1.6-5.27,8.84-4.94,12.48.02.21.49,2.52.82,3.97-.32-.82-.62-1.63-.96-2.47-.66-1.67-1.37-3.33-2.12-5.11-.39-.85-.79-1.7-1.2-2.57-.38-.86-.89-1.73-1.34-2.61-1.08-2.01-2.27-3.99-3.51-5.96,1.46-.58,6.64-2.72,8.55-4.68,1.91-1.95,3.8-4.97,3.37-7.83-.42-2.8-3.03-4.9-5.89-4.17-3.97,1.02-6.55,7.94-6.77,11.59-.01.23.12,2.86.22,4.31-.76-1.18-1.51-2.36-2.31-3.53-2.32-3.37-4.78-6.71-7.21-10.05-.75-1.02-1.48-2.05-2.21-3.08.52-.2,6.73-2.61,8.87-4.81,1.91-1.95,3.8-4.97,3.37-7.83-.42-2.8-3.03-4.9-5.89-4.17-3.97,1.02-6.55,7.94-6.77,11.59-.02.27.18,4.07.28,5.03-1.62-2.26-3.21-4.53-4.69-6.83-2.05-3.17-3.88-6.4-5.42-9.65.24-.09,6.73-2.58,8.93-4.83,1.91-1.95,3.8-4.97,3.37-7.83-.42-2.8-3.03-4.9-5.89-4.17-3.97,1.02-6.55,7.94-6.77,11.59-.01.24.13,3.13.24,4.5-.12.03-.1.03-.23.06-1.61-3.51-2.73-7.11-3.61-10.53-.51-1.98-.9-3.9-1.22-5.78,1.26-.34,6.97-1.95,9.18-3.76,2.11-1.73,4.32-4.53,4.21-7.42-.11-2.83-2.47-5.2-5.39-4.79-4.06.57-7.38,7.17-8,10.77-.03.2-.16,2.23-.23,3.71-.13-.85-.29-1.73-.4-2.54-.43-3.07-.64-5.9-.81-8.42-.08-1.43-.13-2.72-.16-3.93,1.06-.98,5.27-4.96,6.38-7.53,1.08-2.51,1.75-6.01.32-8.52-1.4-2.46-4.59-3.48-6.99-1.77-3.34,2.38-3.24,9.77-2.14,13.25.1.3,2.13,4.84,2.19,4.79,0,0,.05-.05.06-.06,0,1.17.02,2.42.07,3.78.11,2.52.26,5.37.62,8.46.36,3.09.84,6.43,1.66,9.91.82,3.49,1.86,7.11,3.41,10.71.02.04.04.08.06.12-.78-.91-3.05-3.38-3.25-3.55-2.76-2.4-9.51-5.41-13.01-3.29-2.52,1.53-2.85,4.86-1.15,7.12,1.74,2.31,5.22,3.08,7.95,3.08,3.08,0,9.17-2.74,9.65-2.96,1.51,3.41,3.34,6.79,5.38,10.11,1.16,1.9,2.4,3.77,3.65,5.64-.7-.77-1.33-1.45-1.43-1.53-2.76-2.4-9.51-5.41-13.01-3.29-2.52,1.53-2.85,4.86-1.15,7.12,1.74,2.31,5.22,3.08,7.95,3.08,2.77,0,8.01-2.23,9.39-2.85.49.71.97,1.42,1.46,2.13,2.36,3.4,4.74,6.78,6.96,10.17.79,1.19,1.51,2.4,2.25,3.6-.62-.68-1.15-1.25-1.24-1.32-2.76-2.4-9.51-5.41-13.01-3.29-2.52,1.53-2.85,4.86-1.15,7.12,1.74,2.31,5.22,3.08,7.95,3.08,2.65,0,7.5-2.02,9.14-2.74.71,1.25,1.43,2.51,2.07,3.76.41.86.87,1.66,1.24,2.55.38.87.76,1.73,1.14,2.59.66,1.67,1.36,3.39,1.96,5.04.43,1.14.82,2.24,1.21,3.34-.77-1.2-2.32-3.51-2.47-3.69-1.57-1.85-4.84-4.23-7.97-5.17-.23-.27-.48-.53-.76-.76-2.19-1.79-5.54-1.6-7.16.86-2.26,3.42.48,10.28,2.77,13.13.13.17,1.8,1.83,2.87,2.86-.72-.51-1.41-1.02-2.16-1.53-1.47-1.03-2.97-2.02-4.59-3.09-.8-.49-1.6-.98-2.41-1.48-.79-.51-1.7-.95-2.55-1.43-2.01-1.08-4.09-2.08-6.22-3.03.9-1.29,4.04-5.93,4.55-8.62.51-2.68.43-6.24-1.51-8.39-1.9-2.1-5.23-2.42-7.21-.23-2.75,3.04-1.08,10.23.75,13.4.11.2,1.68,2.32,2.56,3.48-1.28-.57-2.56-1.14-3.87-1.67-3.8-1.53-7.68-2.96-11.56-4.41-1.19-.44-2.36-.9-3.54-1.35.33-.46,4.17-5.89,4.75-8.9.51-2.68.43-6.24-1.51-8.39-1.9-2.1-5.23-2.42-7.21-.23-2.75,3.04-1.08,10.23.75,13.4.14.24,2.4,3.3,3.01,4.04-2.6-.99-5.18-2.01-7.68-3.11-3.46-1.52-6.76-3.2-9.85-5.06.15-.21,4.19-5.86,4.78-8.95.51-2.68.43-6.24-1.51-8.39-1.9-2.1-5.23-2.42-7.21-.23-2.75,3.04-1.08,10.23.75,13.4.12.21,1.84,2.54,2.68,3.63-.09.1-.07.08-.16.17-3.28-2.04-6.2-4.42-8.82-6.79-1.52-1.37-2.9-2.76-4.21-4.15.86-.98,4.74-5.47,5.58-8.2.81-2.61,1.11-6.16-.58-8.51-1.65-2.3-4.93-2.98-7.14-1.02-3.07,2.72-2.2,10.05-.73,13.4.08.18,1.1,1.94,1.85,3.22-.58-.63-1.19-1.28-1.74-1.9-2.05-2.32-3.79-4.57-5.31-6.57-.86-1.15-1.61-2.2-2.3-3.2.35-1.4,1.66-7.04,1.17-9.8-.49-2.69-1.85-5.98-4.43-7.28-2.53-1.28-5.75-.37-6.81,2.38-1.47,3.82,2.68,9.93,5.53,12.23.25.2,4.45,2.86,4.47,2.79l.02-.08c.65.97,1.35,2,2.15,3.11,1.48,2.04,3.18,4.34,5.19,6.71,2,2.38,4.25,4.9,6.85,7.35,2.61,2.46,5.47,4.91,8.76,7.05.04.02.08.04.12.07-1.15-.33-4.41-1.14-4.67-1.17-3.63-.48-10.91.73-12.67,4.43-1.26,2.67.3,5.63,2.97,6.58,2.72.98,6.05-.3,8.33-1.8Z"/><path class="r" d="M298.71,102.21c2.14,3.57,9.85,8.83,9.86,8.83.08.05,1.92-6.14,1.99-6.54.82-4.68-.33-14.19-5.04-16.68-3.39-1.79-7.31.08-8.69,3.48-1.41,3.48.06,7.86,1.88,10.91Z"/><path class="r" d="M374.32,158.75c.04.09,4.98-4.06,5.27-4.36,3.27-3.45,7.55-12.02,5-16.69-1.84-3.36-6.14-3.97-9.17-1.89-3.1,2.12-4.29,6.59-4.45,10.13-.19,4.16,3.35,12.8,3.35,12.8Z"/><path class="r" d="M285.62,126.08c2.89,2.77,11.07,5.65,11.72,5.87-1.64,4.56-2.95,9.37-4.01,14.31-.61,2.82-1.14,5.69-1.63,8.57.03-1.35.04-2.55.03-2.72-.44-4.73-4.07-13.6-9.26-14.76-3.74-.83-7.03,2-7.46,5.65-.44,3.73,2.14,7.57,4.69,10.02,2.6,2.49,9.52,5.08,11.36,5.74-.18,1.11-.37,2.21-.54,3.31-.83,5.31-1.63,10.61-2.58,15.79-.33,1.82-.73,3.61-1.12,5.4.02-1.2.04-2.21.02-2.36-.44-4.73-4.07-13.6-9.26-14.76-3.74-.83-7.03,2-7.46,5.65-.44,3.73,2.14,7.57,4.69,10.02,2.48,2.38,8.85,4.83,11.03,5.62-.45,1.82-.9,3.64-1.43,5.38-.38,1.18-.67,2.34-1.12,3.51-.42,1.16-.84,2.31-1.25,3.45-.88,2.16-1.77,4.4-2.68,6.49-.62,1.46-1.24,2.84-1.86,4.23.35-1.81.97-5.37.99-5.68.28-4.74-1.96-14.06-6.92-15.99-3.57-1.39-7.26.91-8.23,4.46-1,3.62.96,7.8,3.12,10.62,2.37,3.1,9.71,7.05,10.63,7.54-1.03,2.3-2.06,4.52-3.06,6.61-2.9,6.06-5.58,11.17-7.7,15.08l2.89,2.07c2.09-4.04,4.77-9.42,7.66-15.81,1.06-2.33,2.14-4.84,3.23-7.43.65.16,4.35,1.05,7.9,1.44.5,3.98,4.17,10.84,4.65,11.72-2.13,1.35-4.21,2.64-6.2,3.82-5.65,3.39-10.62,6.13-14.51,8.21l3.16,2.26c3.64-2.07,8.06-4.66,13.01-7.78,2.17-1.36,4.46-2.85,6.79-4.41.69.75,6.38,6.86,9.99,8.38,3.27,1.37,7.81,2.22,11.06.33,3.18-1.84,4.48-5.99,2.23-9.09-3.12-4.31-12.7-4.12-17.22-2.65-.27.09-3.05,1.35-4.79,2.18.95-.64,1.88-1.25,2.85-1.93,1.93-1.32,3.82-2.69,5.85-4.15.96-.74,1.92-1.49,2.9-2.25.98-.73,1.93-1.63,2.91-2.45,2.23-1.94,4.39-4.02,6.53-6.16,1.16,1.69,5.35,7.62,8.39,9.48,3.02,1.85,7.39,3.37,10.88,2.01,3.42-1.34,5.33-5.24,3.58-8.65-2.43-4.73-11.93-6-16.62-5.23-.29.05-3.59.98-5.39,1.52,1.27-1.3,2.55-2.59,3.8-3.94,3.6-3.91,7.11-7.98,10.64-12.02,1.08-1.24,2.17-2.46,3.26-3.69.4.6,5.24,7.76,8.64,9.85,3.02,1.85,7.39,3.38,10.88,2.01,3.42-1.34,5.33-5.24,3.58-8.65-2.43-4.73-11.93-6-16.62-5.23-.35.06-5.1,1.4-6.29,1.8,2.4-2.7,4.81-5.37,7.3-7.91,3.42-3.5,6.98-6.75,10.65-9.64.19.28,5.2,7.77,8.68,9.91,3.02,1.85,7.39,3.38,10.88,2.01,3.42-1.34,5.33-5.24,3.58-8.65-2.43-4.73-11.93-6-16.62-5.23-.31.05-3.92,1.07-5.63,1.6-.08-.15-.06-.12-.14-.27,3.98-3.05,8.21-5.51,12.29-7.61,2.36-1.22,4.68-2.26,6.97-3.22.79,1.49,4.48,8.26,7.4,10.53,2.8,2.18,6.97,4.17,10.6,3.19,3.55-.96,5.88-4.63,4.51-8.21-1.89-4.97-11.2-7.27-15.94-7.02-.26.01-2.86.44-4.76.78,1.04-.42,2.1-.87,3.1-1.24,3.76-1.43,7.28-2.51,10.42-3.45,1.79-.51,3.41-.95,4.93-1.33,1.54,1.06,7.79,5.24,11.37,5.9,3.49.64,8.11.48,10.87-2.05,2.71-2.48,3.08-6.81.22-9.36-3.97-3.54-13.29-1.29-17.39,1.11-.35.21-5.51,4.1-5.43,4.15,0,0,.07.05.09.06-1.47.34-3.05.73-4.77,1.18-3.16.87-6.72,1.87-10.52,3.23-3.8,1.35-7.9,2.91-12.06,4.96-4.18,2.04-8.46,4.4-12.57,7.4-.05.03-.09.07-.14.11.93-1.25,3.4-4.84,3.56-5.13,2.24-4.19,4.11-13.59.42-17.41-2.66-2.76-6.97-2.21-9.34.6-2.42,2.87-2.39,7.49-1.61,10.95.88,3.9,6.11,10.81,6.53,11.36-3.88,2.9-7.63,6.18-11.24,9.72-2.07,2.02-4.08,4.12-6.08,6.25.77-1.11,1.44-2.1,1.52-2.25,2.24-4.19,4.11-13.59.42-17.42-2.66-2.76-6.97-2.21-9.34.6-2.42,2.87-2.39,7.49-1.61,10.95.79,3.51,5.14,9.49,6.31,11.06-.76.82-1.52,1.64-2.28,2.47-3.62,3.97-7.22,7.95-10.86,11.74-1.28,1.34-2.6,2.61-3.91,3.88.68-.99,1.24-1.82,1.32-1.96,2.24-4.19,4.11-13.59.42-17.41-2.66-2.76-6.97-2.21-9.34.6-2.42,2.87-2.39,7.49-1.61,10.95.75,3.35,4.72,8.91,6.1,10.78-1.38,1.26-2.76,2.54-4.16,3.7-.97.77-1.85,1.59-2.87,2.31-.99.74-1.98,1.47-2.95,2.19-1.93,1.32-3.9,2.7-5.82,3.94-1.32.88-2.6,1.68-3.88,2.5,1.29-1.32,3.77-3.95,3.95-4.19,1.89-2.52,3.96-7.35,4.24-11.57.28-.37.53-.76.74-1.18,1.63-3.29.43-7.46-3.16-8.81-4.98-1.87-12.87,3.57-15.82,7.29-.17.22-1.8,2.81-2.8,4.46.44-1.06.88-2.08,1.32-3.18.88-2.16,1.7-4.35,2.59-6.69.39-1.15.78-2.31,1.18-3.48.42-1.15.71-2.42,1.08-3.65.79-2.85,1.45-5.78,2.05-8.74,1.89.77,8.66,3.4,12.22,3.28,3.54-.12,8.02-1.26,10.18-4.33,2.11-3.01,1.55-7.31-1.79-9.19-4.63-2.6-13.26,1.58-16.74,4.81-.22.2-2.46,2.8-3.66,4.25.35-1.79.7-3.56.99-5.38.84-5.24,1.53-10.58,2.25-15.9.22-1.63.45-3.25.68-4.87.67.28,8.65,3.58,12.64,3.45,3.54-.12,8.02-1.26,10.18-4.33,2.11-3.01,1.55-7.31-1.79-9.19-4.64-2.6-13.26,1.58-16.74,4.8-.26.24-3.48,3.98-4.25,4.97.51-3.57,1.05-7.13,1.72-10.62.92-4.81,2.1-9.48,3.57-13.92.31.13,8.62,3.61,12.71,3.48,3.54-.12,8.02-1.26,10.18-4.33,2.11-3.01,1.55-7.31-1.79-9.19-4.64-2.6-13.26,1.58-16.74,4.8-.23.21-2.68,3.06-3.82,4.44-.14-.08-.12-.07-.26-.15,1.63-4.74,3.81-9.12,6.05-13.12,1.29-2.32,2.66-4.47,4.04-6.52,1.48.81,8.29,4.42,11.98,4.7,3.54.27,8.11-.37,10.6-3.18,2.43-2.76,2.35-7.1-.77-9.33-4.32-3.1-13.35.12-17.17,2.94-.21.15-2.14,1.95-3.54,3.27.64-.92,1.27-1.88,1.9-2.75,2.34-3.27,4.69-6.11,6.79-8.62,1.2-1.41,2.32-2.67,3.38-3.83,1.87.03,9.39.08,12.73-1.35,3.26-1.39,7.03-4.07,7.94-7.71.89-3.57-1.19-7.38-4.98-7.93-5.26-.76-11.8,6.25-13.89,10.52-.18.37-2.34,6.46-2.24,6.46,0,0,.09,0,.11,0-1.04,1.1-2.14,2.29-3.32,3.62-2.16,2.46-4.57,5.27-7,8.5-2.43,3.22-4.98,6.79-7.32,10.79-2.36,4.01-4.63,8.34-6.4,13.11-.02.05-.03.11-.05.17.08-1.55.17-5.91.14-6.25-.44-4.73-4.07-13.6-9.26-14.76-3.74-.83-7.03,2-7.46,5.65-.44,3.74,2.14,7.58,4.69,10.03Z"/></g><g id="d"><path class="s" d="M346.1,302.11v-3.35c0-17.25,21.84-17.99,21.84-30.28,0-5.34-4.34-8.81-10.8-8.81-7.07,0-11.54,3.85-11.54,9.31v1.36c0,1.36-.74,1.99-2.11,1.99l-13.28-.5c-1.24,0-2.11-.62-2.11-1.49v-1.36c0-15.02,11.91-25.32,29.41-25.32s28.17,9.68,28.17,24.2c0,20.6-22.21,20.72-22.21,32.02v2.23c0,1.36-.74,2.11-2.11,2.11h-13.15c-1.36,0-2.11-.74-2.11-2.11ZM344.98,322.09c0-5.46,4.84-9.93,10.67-9.93s10.55,4.47,10.55,9.93-4.96,9.93-10.67,9.93c-5.83,0-10.55-4.47-10.55-9.93Z"/><path class="p" d="M83.89,160.01v-2.91c0-14.98,18.97-15.63,18.97-26.3,0-4.63-3.77-7.65-9.38-7.65-6.14,0-10.02,3.34-10.02,8.08v1.18c0,1.19-.65,1.73-1.83,1.73l-11.53-.43c-1.08,0-1.83-.54-1.83-1.29v-1.18c0-13.04,10.35-21.99,25.54-21.99s24.47,8.41,24.47,21.02c0,17.89-19.29,18-19.29,27.81v1.94c0,1.19-.65,1.83-1.83,1.83h-11.43c-1.18,0-1.83-.65-1.83-1.83ZM82.92,177.36c0-4.74,4.2-8.62,9.27-8.62s9.16,3.88,9.16,8.62-4.31,8.62-9.27,8.62c-5.06,0-9.16-3.88-9.16-8.62Z"/><path class="p" d="M325.25,45.26v-1.47c0-7.57,9.58-7.9,9.58-13.29,0-2.34-1.91-3.87-4.74-3.87-3.1,0-5.07,1.69-5.07,4.08v.6c0,.6-.33.87-.93.87l-5.83-.22c-.55,0-.93-.27-.93-.65v-.6c0-6.59,5.23-11.11,12.91-11.11s12.36,4.25,12.36,10.62c0,9.04-9.75,9.09-9.75,14.05v.98c0,.6-.33.93-.93.93h-5.77c-.6,0-.93-.33-.93-.93ZM324.76,54.02c0-2.4,2.12-4.36,4.68-4.36s4.63,1.96,4.63,4.36-2.18,4.36-4.68,4.36c-2.56,0-4.63-1.96-4.63-4.36Z"/><path class="g" d="M44.41,247.5v-1.85c0-9.54,12.08-9.95,12.08-16.74,0-2.95-2.4-4.87-5.97-4.87-3.91,0-6.38,2.13-6.38,5.15v.76c0,.76-.41,1.1-1.17,1.1l-7.34-.27c-.69,0-1.17-.34-1.17-.82v-.76c0-8.3,6.59-14,16.26-14s15.58,5.35,15.58,13.38c0,11.39-12.28,11.46-12.28,17.71v1.23c0,.76-.41,1.17-1.17,1.17h-7.28c-.75,0-1.17-.41-1.17-1.17ZM43.79,258.55c0-3.02,2.68-5.49,5.9-5.49s5.83,2.47,5.83,5.49-2.75,5.49-5.9,5.49-5.83-2.47-5.83-5.49Z"/><path class="s" d="M136.4,74.88v-1.28c0-6.56,8.31-6.84,8.31-11.52,0-2.03-1.65-3.35-4.11-3.35-2.69,0-4.39,1.46-4.39,3.54v.52c0,.52-.28.75-.8.75l-5.05-.19c-.47,0-.8-.24-.8-.57v-.52c0-5.71,4.53-9.63,11.19-9.63s10.71,3.68,10.71,9.21c0,7.84-8.45,7.88-8.45,12.18v.85c0,.52-.28.8-.8.8h-5c-.52,0-.8-.28-.8-.8ZM135.97,82.48c0-2.08,1.84-3.78,4.06-3.78s4.01,1.7,4.01,3.78-1.89,3.78-4.06,3.78-4.01-1.7-4.01-3.78Z"/><path class="g" d="M284.44,349.03v-1.27c0-6.56,8.31-6.84,8.31-11.52,0-2.03-1.65-3.35-4.11-3.35-2.69,0-4.39,1.46-4.39,3.54v.52c0,.52-.28.76-.8.76l-5.05-.19c-.47,0-.8-.24-.8-.57v-.52c0-5.71,4.53-9.63,11.19-9.63s10.71,3.68,10.71,9.2c0,7.84-8.45,7.88-8.45,12.18v.85c0,.52-.28.8-.8.8h-5c-.52,0-.8-.28-.8-.8ZM284.01,356.63c0-2.08,1.84-3.78,4.06-3.78s4.01,1.7,4.01,3.78-1.89,3.78-4.06,3.78-4.01-1.7-4.01-3.78Z"/></g><g id="e"><path class="s" d="M245.28,371.79c-.07-.21-.14-.42-.22-.63-.07-.21-.14-.42-.22-.64-.07-.21-.14-.42-.22-.64-.07-.21-.14-.42-.22-.63-.07-.21-.14-.42-.22-.64-.07-.21-.14-.42-.22-.64-.07-.21-.14-.42-.22-.64-.07-.21-.14-.42-.22-.64-.07-.21-.14-.42-.22-.63-.07-.21-.14-.42-.22-.64-.07-.21-.14-.42-.22-.63-.07-.21-.14-.43-.22-.64-.07-.21-.14-.42-.22-.63-.07-.21-.14-.42-.22-.64-.07-.21-.14-.42-.22-.64-.07-.21-.14-.42-.22-.63-.07-.21-.14-.42-.22-.64-.07-.21-.14-.42-.22-.64-.07-.21-.14-.42-.22-.63-3.27-9.92-13.34-17.2-24.44-17.2s-20.1,6.27-23.96,15.08c-.1.2-.19.41-.28.61-.1.2-.19.41-.28.61-.1.2-.19.41-.28.61-.1.2-.19.41-.28.61-.1.2-.19.41-.28.61-.1.2-.19.41-.28.61-.1.2-.19.41-.28.61-.1.2-.19.41-.28.61-.1.2-.19.41-.28.61-.1.2-.19.41-.28.61-.1.2-.19.41-.28.61-.1.2-.19.41-.28.61-.1.2-.19.41-.28.61-.1.2-.19.41-.28.61-.1.2-.19.41-.28.61-.1.2-.19.41-.28.61-.1.2-.19.41-.28.61-.1.2-.19.41-.28.61-.1.2-.19.41-.28.61-.1.2-.19.41-.28.61-1.68,3.56-2.61,7.48-2.61,11.6,0,16.09,13.9,29.26,31.09,29.26s31.45-13.17,31.45-29.26c0-3.15-.57-6.18-1.59-9.03-.07-.21-.14-.43-.22-.64Z"/><path class="s" d="M221.49,150.3c-51.57,0-86.68,30.36-86.68,74.61v4.02c0,1.34.71,2.48,1.9,3.26.21.2.45.39.71.56.21.2.45.39.71.56.21.2.45.39.71.56.21.2.45.39.71.56.21.2.45.39.71.56.21.2.45.39.71.56.21.2.45.39.71.56.21.2.45.39.71.56.21.2.45.39.71.56.22.22.48.42.77.6.2.19.41.36.65.52.21.2.44.39.71.56.21.2.44.39.71.56.21.2.44.39.71.56.21.2.44.39.71.56.21.21.44.39.71.56.21.21.44.39.71.56.21.21.44.39.71.56.21.21.44.39.71.56.2.21.44.39.71.56.89.91,2.37,1.46,4.2,1.46l32.16,1.2c3.31,0,5.11-1.5,5.11-4.81v-3.31c0-13.22,10.82-22.54,27.95-22.54,15.63,0,26.15,8.41,26.15,21.34,0,1.54-.15,3-.42,4.4-16.14,21.16-58.15,30.48-58.15,71.56v9.88c0,4.02,2.19,6.22,6.22,6.22h38.77c4.02,0,6.22-2.19,6.22-6.22v-6.58c0-33.28,65.47-33.65,65.47-94.36,0-42.79-32.55-71.32-83.03-71.32Z"/><path class="o" d="M187.84,322.57v-9.88c0-50.84,64.37-53.03,64.37-89.24,0-15.73-12.8-25.97-31.82-25.97-20.85,0-34.01,11.34-34.01,27.43v4.02c0,4.02-2.19,5.85-6.22,5.85l-39.14-1.46c-3.66,0-6.22-1.83-6.22-4.39v-4.02c0-44.26,35.11-74.61,86.68-74.61s83.03,28.53,83.03,71.32c0,60.71-65.47,61.08-65.47,94.36v6.58c0,4.02-2.2,6.22-6.22,6.22h-38.77c-4.02,0-6.22-2.19-6.22-6.22ZM184.54,381.45c0-16.09,14.26-29.26,31.46-29.26s31.09,13.17,31.09,29.26-14.63,29.26-31.46,29.26-31.09-13.17-31.09-29.26Z"/><ellipse class="s" cx="214.04" cy="431.29" rx="54.61" ry="12.21"/></g><g id="f"><path class="h" d="M172.3,154.35l-2.09,4.57s-12.14,1.3-12.14,2.22.13,7.18.78,7.44,1.04.13,1.57,0c.52-.13,17.88-4.57,17.88-4.57l1.7-8.09-7.7-1.57Z"/><path class="h" d="M168.89,162.51s-4.24,3.46-7.14,4.76-2.98,3.27-2.08,3.27,9.08-3.42,9.08-3.42c0,0,7.41-1.94,8.48-2.53,1.07-.59,1.19-3.87,1.19-3.87"/><polygon class="i" points="182.98 66.73 175.52 123.91 170.32 154.87 181.85 157.59 190.44 120.97 194.51 97.92 182.98 66.73"/><polygon class="h" points="243.18 25.33 238.62 24.61 229.31 21.08 228.97 32.15 243.42 33.48 243.18 25.33"/><path class="i" d="M189.99,228.1s-5.65,6.55-9.49,12.43c-3.84,5.88-2.49,12.2,2.26,13.79s10.85-2.71,12.43-6.1c1.58-3.39,1.13-5.2,3.62-8.59s4.52-6.78,3.62-11.3c-.9-4.52-9.94-3.39-12.43-.23Z"/><path class="h" d="M194.72,249.03c-.32-.68-.68-1.4-1.12-2.17-3.63-6.39-9.96-5.87-14.03-4.69-2.63,5.37-1.13,10.71,3.18,12.15,4.37,1.46,9.89-2.08,11.97-5.29Z"/><path class="h" d="M193.6,246.86c-1.36,2.03-3.16,7.46-10.17,5.2-2.76-.89-4.24-2.06-5.04-3.15.42,2.57,1.96,4.6,4.37,5.41,4.75,1.58,10.85-2.71,12.43-6.1,1.58-3.39,1.13-5.2,3.62-8.59s4.52-6.78,3.62-11.3c0,5.42-2.03,6.33-4.52,9.27-2.49,2.94-2.94,7.23-4.29,9.27Z"/><path class="i" d="M256.68,228.1s5.65,6.55,9.49,12.43,2.49,12.2-2.26,13.79-10.85-2.71-12.43-6.1c-1.58-3.39-1.13-5.2-3.62-8.59s-4.52-6.78-3.62-11.3,9.94-3.39,12.43-.23Z"/><path class="h" d="M251.94,249.03c.32-.68.68-1.4,1.12-2.17,3.63-6.39,9.96-5.87,14.03-4.69,2.63,5.37,1.13,10.71-3.18,12.15-4.37,1.46-9.89-2.08-11.97-5.29Z"/><path class="h" d="M253.06,246.86c1.36,2.03,3.16,7.46,10.17,5.2,2.76-.89,4.24-2.06,5.04-3.15-.42,2.57-1.95,4.6-4.37,5.41-4.75,1.58-10.85-2.71-12.43-6.1-1.58-3.39-1.13-5.2-3.62-8.59s-4.52-6.78-3.62-11.3c0,5.42,2.03,6.33,4.52,9.27,2.49,2.94,2.94,7.23,4.29,9.27Z"/><path class="l" d="M267.28,150.13c0-4.07-7.01-8.59-7.01-8.59-10.55-10.73-29.58-9.31-36.61-8.35-7.03-.96-26.06-2.38-36.61,8.35,0,0-7.01,4.52-7.01,8.59s8.81,77.52,8.81,77.52c0,0-.23,3.84,6.1,4.29s9.04-3.16,9.04-3.16l2.49-62.15s10.17-7.23,11.98-7.46c.67-.08,1.53-.23,2.49-.35v.12c.9-.21,1.82-.28,2.71-.28.9,0,1.81.08,2.71.28v-.12c.96.12,1.82.26,2.49.35,1.81.23,11.98,7.46,11.98,7.46l2.49,62.15s2.71,3.62,9.04,3.16,6.1-4.29,6.1-4.29c0,0,8.82-73.45,8.82-77.52Z"/><path class="m" d="M240.84,166.63s-1.36-14.92,5.2-20.57"/><path class="m" d="M206.48,166.63s.68-12.43-.68-16.95c-1.36-4.52-3.62-6.33-3.62-6.33"/><path class="m" d="M214.85,137.02s7.23,8.36,8.59,15.37"/><path class="m" d="M230.67,137.47s-4.07,4.52-4.52,7.91"/><path class="k" d="M220.5,49.56s-6.55-.9-8.81,1.36-9.94,10.62-9.94,10.62l4.07,71.87s9.27,3.62,17.18,3.62,16.95-2.94,18.98-4.52.23-78.65.23-78.65c0,0-16.72-4.97-21.7-4.29Z"/><path class="i" d="M232.47,51.14s5.88-.9,10.4-.9,9.04.23,9.04.23l11.3-10.85-22.83-5.2,1.81-10.4s16.72-1.13,25.09.45,21.47,5.65,22.15,5.65,1.58,2.49.9,4.29-21.92,25.31-28.25,31.42c-6.33,6.1-11.75,12.88-11.75,12.88l-2.94,50.4s7.46,4.07,8.81,5.42,2.94,6.78,2.94,6.78c0,0-13.79-5.65-17.4-6.1-3.62-.45-5.88-.68-6.55-2.03-.68-1.36-6.33-61.7-6.33-61.7l.23-19.21s0-1.13,3.39-1.13Z"/><polygon class="j" points="246.03 82.1 233.83 83.68 234.96 88.2 241.06 89.78 246.94 87.07 246.03 82.1"/><polyline class="j" points="253.04 54.98 250.33 78.71 257.33 58.6"/><path class="j" d="M263.21,39.61s5.65,1.13,14.24-2.26"/><path class="j" d="M269.09,41.19s5.88.23,11.07-.9"/><path class="h" d="M212.81,49.33l1.13,16.5s3.16,4.52,8.81,4.29,6.33-4.29,6.33-4.29v-13.56l-16.27-2.94Z"/><path class="i" d="M229.31,57.92l-.45,13.56,4.75-7.46s5.2,6.55,6.55,6.33-.9-2.94-1.36-5.42c-.45-2.49-4.29-11.3-4.75-13.79s-4.75-2.94-4.97-1.81c-.23,1.13,0,2.94,0,2.94l.23,5.65Z"/><path class="i" d="M213.72,70.12s.9,63.28-1.36,63.96c-2.26.68-11.3.9-16.95,3.62-5.65,2.71-8.36,3.84-8.36,3.84,0,0,2.71-6.55,5.88-9.49s7.01-4.75,7.01-4.75l-5.88-30.28s-10.85-28.7-11.07-30.29c-.23-1.58,20.57-13.33,24.86-15.37s5.42-.23,5.42-.23l.45,18.98Z"/><path class="i" d="M208.07,48.2s-5.42,17.18-5.88,19.44,0,2.26,1.58.68,5.65-5.42,5.65-5.42l4.29,7.23-.23-13.33v-7.68s-.23-3.16-5.42-.9Z"/><polygon class="j" points="197.44 85.26 210.78 85.26 210.55 90.69 204.68 92.72 197.22 90.69 197.44 85.26"/><path class="h" d="M234.06,25.83s3.16,13.79,3.84,16.05-3.62,11.07-4.97,13.11c-1.36,2.03-3.39,3.16-4.97,3.16s-10.17-2.94-12.2-4.29c-2.03-1.36-4.07-2.94-4.07-2.94,0,0-3.16,1.58-5.88-.9s-6.33-5.42-5.42-7.46,2.71-3.16,5.2-3.16,1.58-.23,1.58-.23c0,0-4.52-6.55-4.52-11.75s9.72-9.04,15.37-9.04,11.3,2.71,11.3,2.71l4.75,4.75Z"/><polyline class="j" points="226.15 31.02 230.21 38.71 226.15 41.42 224.34 39.16"/><path class="j" d="M233.6,38.03s.23,1.81-2.49,4.75"/><path class="s" d="M221.85,33.85c0,1.06-.46,1.92-1.02,1.92s-1.02-.86-1.02-1.92.46-1.92,1.02-1.92,1.02.86,1.02,1.92Z"/><ellipse class="s" cx="228.97" cy="30.23" rx="1.02" ry="1.92"/><path class="l" d="M209.65,14.07s-14.24,5.2-14.69,11.75,12.66,15.59,13.33,16.72c.68,1.13,2.71-1.36,2.71-1.36,0,0-1.58-2.03-.9-4.29s3.62-4.97,3.62-6.1-3.39.9-3.39-2.49,8.36-5.42,13.33-5.2,9.27,8.59,12.88,4.52-1.58-5.2-1.58-5.2c0,0,7.01-.9,7.01-4.52s-3.62-6.1-5.2-6.1-5.88,2.71-5.88-.23,4.29-4.29.23-9.04c-4.07-4.75-9.27,0-9.27,1.81s-1.36,5.2-2.26,5.2-3.62-4.07-6.78-1.81c-3.16,2.26-3.16,6.33-3.16,6.33Z"/><line class="j" x1="215.52" y1="31.48" x2="222.76" y2="28.76"/><path class="j" d="M223.89,25.6s-.26-.9.32-2.08"/><path class="n" d="M224.21,23.52c.51-1.04,1.66-2.29,4.2-3.35"/></g></svg>